<?xml version="1.0" encoding="UTF-8" standalone="no"?>
<!-- Created with Inkscape (http://www.inkscape.org/) -->

<svg
   width="1024pt"
   height="1024pt"
   viewBox="0 0 361.24444 361.24444"
   version="1.1"
   id="svg1255"
   xml:space="preserve"
   inkscape:version="1.2.2 (b0a8486541, 2022-12-01)"
   sodipodi:docname="Boykisser.svg"
   inkscape:export-filename="Boykisser.png"
   inkscape:export-xdpi="479.68625"
   inkscape:export-ydpi="479.68625"
   xmlns:inkscape="http://www.inkscape.org/namespaces/inkscape"
   xmlns:sodipodi="http://sodipodi.sourceforge.net/DTD/sodipodi-0.dtd"
   xmlns="http://www.w3.org/2000/svg"
   xmlns:svg="http://www.w3.org/2000/svg"><sodipodi:namedview
     id="namedview1257"
     pagecolor="#505050"
     bordercolor="#ffffff"
     borderopacity="1"
     inkscape:showpageshadow="0"
     inkscape:pageopacity="0"
     inkscape:pagecheckerboard="1"
     inkscape:deskcolor="#505050"
     inkscape:document-units="mm"
     showgrid="false"
     inkscape:zoom="0.33197215"
     inkscape:cx="936.82557"
     inkscape:cy="611.49707"
     inkscape:window-width="1366"
     inkscape:window-height="699"
     inkscape:window-x="0"
     inkscape:window-y="32"
     inkscape:window-maximized="1"
     inkscape:current-layer="layer1" /><defs
     id="defs1252" /><g
     inkscape:label="Layer 1"
     inkscape:groupmode="layer"
     id="layer1"><g
       id="g16012"
       transform="matrix(5.8669036,0,0,5.8669036,-287.09417,-761.92483)"><g
         id="g15373"
         style="fill:none"><path
           style="fill:none;stroke:#000000;stroke-width:0.564999;stroke-dasharray:none"
           d="m 69.626127,189.91659 c 9.044508,0 18.089015,0 27.133523,0 -0.502926,-2.78036 -2.170556,-5.12001 -3.322699,-7.65471 -1.264507,-2.1515 -3.078952,-3.94985 -4.566967,-5.95782 -1.335009,-0.93474 0.404541,-1.11798 1.149233,-1.54439 2.916045,-1.30968 5.909199,-2.5432 8.751118,-3.95338 1.464185,-0.10099 2.987845,0.0524 4.284565,-0.7648 0.14504,-1.16517 -0.56534,-2.01969 -1.2179,-2.89521 -0.44574,-0.87444 -1.44103,-1.59616 -1.54367,-2.56595 -0.28306,-1.20511 1.19541,-1.24076 1.92184,-1.77568 1.36322,-0.85038 3.20376,-1.13328 4.00067,-2.65694 0.25569,-1.10252 -1.40603,-0.78925 -2.15341,-0.76103 -1.30744,0.059 -2.66678,-0.0933 -3.79071,0.71298 -0.807037,0.35333 0.9196,-1.32562 1.1874,-1.83442 1.48346,-1.72658 2.50249,-3.79804 3.57729,-5.77906 0.51078,-2.67527 1.56727,-5.28368 1.38319,-8.04407 0.004,-3.73372 0.21764,-7.48177 0.0887,-11.20642 -0.1433,-0.98112 -0.0522,-2.40159 -1.29275,-1.32624 -1.60695,0.52975 -2.7361,1.79756 -4.0072,2.84611 -0.88286,-0.89799 -1.701818,-0.55847 -2.496599,0.24943 -2.095338,1.53118 -4.289255,2.94739 -5.996348,4.9314 -1.52378,1.53268 -3.04756,3.06537 -4.57134,4.59806 -1.668221,-2.53761 -3.300418,-5.14867 -5.218175,-7.48664 -0.966438,-0.75847 -1.932875,-1.51694 -2.899313,-2.27541 -0.134657,1.79086 -0.269315,3.58173 -0.403972,5.37259 -0.891024,-0.95642 -1.34665,-2.49936 -2.795416,-2.70444 -1.046573,-0.44838 -2.10091,-0.82994 -3.239389,-0.4874 -2.361324,0.30694 -4.77342,0.57925 -6.990836,1.49116 -0.140622,0.99011 1.315002,1.40399 1.866664,2.1442 1.048766,0.75359 2.473397,0.96268 3.660541,1.48907"
           id="path15367" /><path
           style="fill:none;stroke:#000000;stroke-width:0.564999;stroke-dasharray:none"
           d="m 68.29762,137.82588 c -2.137181,-0.92483 -3.459075,-2.90065 -5.108184,-4.45466 -0.708618,-0.96851 -1.831849,-1.37966 -2.853128,-1.92786 -0.923251,0.66786 -2.210039,1.02323 -2.440948,2.2862 -0.965972,2.20271 -2.056032,4.36406 -2.422572,6.76657 -0.476798,1.66389 -0.772782,3.34939 -0.646251,5.08538 0.08569,2.60701 -0.369765,5.27565 0.483012,7.79529 0.415243,1.356 0.786913,2.7971 1.462788,4.03167 0.845028,1.05994 1.731852,2.0821 2.71332,3.01871 -0.445211,1.17775 -1.603664,0.53542 -2.527727,0.49122 -1.334806,-0.18307 -2.669611,-0.36613 -4.004417,-0.5492 -0.365955,1.15322 0.92738,1.80892 1.421224,2.70435 0.81298,1.01693 1.485438,2.20353 2.807915,2.60528 1.33929,0.3036 -0.05398,1.59797 -0.17842,2.43229 -0.524764,1.5282 -1.619166,2.94893 -1.300665,4.63622 0.448578,0.49765 1.885845,-0.1445 2.716359,-0.0872 1.089341,-0.14695 2.195306,-0.41606 3.173924,0.25067 2.220235,0.99232 4.590091,1.71807 6.714863,2.88047 0.455265,0.4602 2.655964,1.58544 0.985244,1.23561 -1.667492,-0.15107 -3.366797,-0.1708 -4.868117,-1.00792 -0.832084,-0.57179 -2.219446,-0.80982 -1.507889,0.53678 1.386861,1.6446 2.773723,3.28919 4.160584,4.93379 -0.927019,1.55636 -1.854038,3.11271 -2.781057,4.66907 1.919704,-0.22547 3.839407,-0.45093 5.759111,-0.6764 -0.14349,1.47812 -0.286979,2.95623 -0.430469,4.43435"
           id="path15369" /></g><path
         style="fill:none;stroke:#000000;stroke-width:0.564999;stroke-dasharray:none"
         d="m 61.839384,162.89123 c 0.08673,-1.43555 -0.17252,-2.94246 0.127098,-4.33409 0.91734,-2.07081 1.630622,-4.25579 3.124871,-6.00381 0.558457,-0.976 1.497653,-1.68821 2.670263,-1.51928 1.133644,-0.15347 1.549682,0.78811 1.798741,1.71107"
         id="path15375" /><path
         style="fill:none;stroke:#000000;stroke-width:0.564999;stroke-dasharray:none"
         d="m 82.30546,153.77721 c 1.03057,-1.3602 2.552724,-2.45763 4.312796,-2.4674 1.389095,-0.1828 2.901148,0.0316 3.992582,0.97326 1.068177,0.64833 1.398078,2.02189 2.082891,3.02286 0.697969,1.25686 1.41094,2.50879 1.437829,3.98576 0.09707,0.62952 0.194147,1.25905 0.291221,1.88857"
         id="path15377" /><path
         style="fill:none;stroke:#ff0000;stroke-width:0.564999;stroke-dasharray:none"
         d="m 59.634964,166.91257 c 0.693047,0.0279 2.422472,-1.35357 2.165768,-0.034 -0.363052,1.53834 0.435211,1.24396 1.452192,0.60441 0.552668,-0.26099 1.105336,-0.52199 1.658004,-0.78298"
         id="path15379" /><path
         style="fill:none;stroke:#ff0000;stroke-width:0.564999;stroke-dasharray:none"
         d="m 89.297059,167.4085 c 0.837455,-0.68929 1.674909,-1.37858 2.512364,-2.06787 0.130179,0.90344 -0.152367,2.24745 0.237779,2.87339 1.104641,-0.18739 2.115684,-1.01768 3.163571,-1.44325"
         id="path15507" /><path
         style="fill:none;stroke:#000000;stroke-width:0.564999;stroke-dasharray:none"
         d="m 71.75488,172.67889 c 0.985744,-0.17439 2.368758,0.47967 2.907857,-0.62614 0.333488,-0.41534 0.666975,-0.83069 1.000462,-1.24603"
         id="path15509" /><path
         style="fill:none;stroke:#000000;stroke-width:0.564999;stroke-dasharray:none"
         d="m 76.565119,171.08003 c 0.839063,0.57783 1.696187,1.07922 2.744011,0.77354 0.907465,-0.009 2.198156,-0.1754 1.981971,-1.3724 l 0.0023,-0.0161"
         id="path15511" /><path
         style="fill:#000000;stroke:#000000;stroke-width:0.564999;stroke-dasharray:none"
         d="m 72.991492,163.47157 c -1.281269,0.10046 -2.72552,-0.13349 -3.906352,0.17304 -0.72049,1.81855 3.793335,2.08985 3.906352,-0.17304 z"
         id="path15513" /><path
         style="fill:#000000;stroke:none;stroke-width:0.60006;stroke-dasharray:none"
         id="path15517"
         sodipodi:type="arc"
         sodipodi:cx="69.185661"
         sodipodi:cy="158.86021"
         sodipodi:rx="1.8050702"
         sodipodi:ry="4.6591582"
         sodipodi:start="0"
         sodipodi:end="6.2626244"
         sodipodi:open="true"
         sodipodi:arc-type="arc"
         d="m 70.990731,158.86021 a 1.8050702,4.6591582 0 0 1 -1.795791,4.6591 1.8050702,4.6591582 0 0 1 -1.814253,-4.6112 1.8050702,4.6591582 0 0 1 1.77714,-4.7065 1.8050702,4.6591582 0 0 1 1.832523,4.56281" /><path
         style="fill:#000000;stroke:none;stroke-width:0.749795;stroke-dasharray:none"
         id="path15519"
         sodipodi:type="arc"
         sodipodi:cx="87.278328"
         sodipodi:cy="159.41505"
         sodipodi:rx="2.5621653"
         sodipodi:ry="4.4175606"
         sodipodi:start="0"
         sodipodi:end="6.2626244"
         sodipodi:open="true"
         sodipodi:arc-type="arc"
         d="m 89.840493,159.41505 a 2.5621653,4.4175606 0 0 1 -2.548995,4.41751 2.5621653,4.4175606 0 0 1 -2.5752,-4.37209 2.5621653,4.4175606 0 0 1 2.522521,-4.46245 2.5621653,4.4175606 0 0 1 2.601133,4.32621" /><path
         style="fill:#ffffff;stroke:none;stroke-width:1.13713;stroke-dasharray:none"
         d="m 264.91494,714.75429 c -0.003,-0.80541 0.2758,-4.40023 0.62033,-7.98849 0.34454,-3.58825 0.4794,-6.67114 0.29969,-6.85085 -0.17972,-0.17971 -4.67633,0.19609 -9.99248,0.83512 -5.31615,0.63903 -9.75322,1.07437 -9.86016,0.96743 -0.10694,-0.10694 1.83407,-3.57626 4.31335,-7.70961 2.47928,-4.13335 4.50778,-7.7855 4.50778,-8.11589 0,-0.33039 -3.4925,-4.7248 -7.7611,-9.76535 -4.26861,-5.04056 -7.99126,-9.58399 -8.27256,-10.09653 -0.79368,-1.44611 0.96579,-1.1918 4.71443,0.68142 3.95687,1.97727 9.67502,3.12127 16.52415,3.30589 4.85922,0.13099 5.18851,0.0726 5.33432,-0.94589 0.11557,-0.80729 -0.7301,-1.72251 -3.29962,-3.57098 -4.4533,-3.20363 -6.6126,-4.26756 -17.88971,-8.81468 -5.12536,-2.06663 -10.39716,-4.24899 -11.7151,-4.84969 -3.33572,-1.52037 -6.64811,-1.47313 -18.32143,0.26132 l -2.61254,0.38817 0.30301,-2.9359 c 0.27548,-2.6692 2.74603,-9.22185 6.53977,-17.34549 1.48065,-3.17057 1.65782,-5.02821 0.56597,-5.93436 -0.40981,-0.34011 -2.02332,-1.26806 -3.58557,-2.0621 -2.79611,-1.42117 -3.8315,-2.50224 -10.88323,-11.36344 -2.37959,-2.99019 -3.76138,-5.25665 -3.20483,-5.25665 0.10203,0 4.34789,0.59789 9.43525,1.32863 5.08735,0.73075 9.99353,1.32982 10.90262,1.33127 1.81262,0.003 4.47092,-2.04616 4.47092,-3.44623 0,-0.46046 -2.30829,-3.40733 -5.12953,-6.54861 -2.96991,-3.30682 -5.64079,-6.85087 -6.34388,-8.41784 -1.60926,-3.58656 -4.82607,-14.06401 -5.53437,-18.02593 -0.88375,-4.9434 -0.72306,-29.62414 0.22774,-34.97775 1.72026,-9.68623 3.94957,-17.05263 8.04046,-26.5684 4.09634,-9.52849 4.14239,-9.60465 6.92221,-11.44979 1.53915,-1.02163 3.11686,-1.97537 3.50604,-2.11943 1.73733,-0.64311 7.12771,3.41798 15.25275,11.49133 4.5939,4.56468 9.06355,8.7931 9.93255,9.39651 l 1.57999,1.09709 -1.97937,0.82704 c -1.73944,0.72678 -1.97938,1.04874 -1.97938,2.65601 0,1.87421 0.0601,1.94591 5.80498,6.92368 2.67166,2.31491 4.63834,3.30558 10.59888,5.33894 l 5.48752,1.872 0.43835,-1.16519 c 0.5276,-1.40243 0.49395,-1.42458 -5.02333,-3.30837 -2.34302,-0.79999 -5.09873,-1.90613 -6.1238,-2.4581 -2.33566,-1.25769 -8.10453,-5.8672 -8.38104,-6.69672 -0.39229,-1.17689 9.40894,-3.62294 20.85446,-5.20456 7.94464,-1.09784 9.54116,-1.02865 14.15181,0.61329 4.77587,1.70077 5.22403,2.04908 8.79644,6.83669 1.52977,2.05014 3.29154,4.18402 3.91504,4.74194 1.11479,0.99755 1.13361,0.99755 1.13209,0 -0.003,-2.13563 1.16546,-18.08887 1.37407,-18.75635 0.1439,-0.46048 1.71081,0.45201 4.55687,2.6537 4.98231,3.85428 8.80244,8.6383 18.00124,22.5433 3.29378,4.97892 6.20689,9.28109 6.47357,9.56038 0.30004,0.3142 5.71162,-4.67273 14.19497,-13.08109 10.90774,-10.81132 15.12505,-14.60556 20.63264,-18.56286 3.80741,-2.73568 7.59992,-5.53567 8.42781,-6.2222 1.91519,-1.58818 3.08399,-1.57458 5.02479,0.0585 l 1.55296,1.30673 4.95614,-4.23301 c 2.72587,-2.32816 6.38964,-4.94935 8.14172,-5.82487 1.75207,-0.87552 3.49276,-1.84679 3.86819,-2.15837 0.49095,-0.40745 0.80805,-0.37236 1.12939,0.12497 0.67679,1.04746 0.83975,30.38938 0.2508,45.15563 -0.5094,12.77149 -0.56894,13.24269 -2.82623,22.36519 -2.1172,8.55633 -2.61062,9.8775 -6.03031,16.14654 -3.2124,5.88904 -5.77328,9.62693 -13.73407,20.04637 -1.54759,2.02556 -1.52738,3.74493 0.044,3.74493 0.46196,0 1.91172,-0.51884 3.22169,-1.15299 1.87195,-0.9062 3.87417,-1.23951 9.35383,-1.55713 6.95619,-0.40321 9.36833,-0.24375 9.36833,0.6193 0,0.25094 -0.73575,1.29422 -1.63499,2.3184 -1.1451,1.30419 -4.21655,3.12439 -10.25072,6.07475 -4.73864,2.31693 -9.06619,4.71561 -9.61677,5.33042 -1.41745,1.5828 -0.96387,5.7673 0.91661,8.45621 0.77312,1.10549 2.93369,4.1951 4.80128,6.8658 1.86758,2.6707 3.50781,5.62036 3.64496,6.5548 0.21545,1.46798 0.0302,1.81231 -1.36256,2.53253 -0.94926,0.49089 -4.25163,1.05478 -8.03311,1.3717 -5.46122,0.45768 -6.89886,0.77965 -9.61622,2.15358 -1.75727,0.8885 -10.37844,4.78589 -19.15815,8.66088 -9.74915,4.30285 -16.24224,7.46579 -16.68013,8.1253 -0.57476,0.86564 -0.58775,1.32521 -0.0654,2.31655 0.35837,0.68017 0.81964,1.35648 1.02504,1.50292 0.34484,0.24584 7.85071,9.36484 12.28366,14.92361 3.49513,4.38277 5.11946,7.11532 9.97467,16.78002 4.77013,9.49535 6.54283,13.50585 7.22909,16.35491 l 0.35273,1.46439 h -49.53307 -49.53307 l -0.006,-1.46439 z m 18.13733,-63.52938 c 3.31814,-3.59043 4.18207,-5.19936 3.14434,-5.85582 -1.22507,-0.77496 -1.36422,-0.68171 -4.0124,2.689 l -2.51015,3.19503 h -4.44774 c -3.95795,0 -4.44773,0.10751 -4.44773,0.97626 0,1.54532 0.43867,1.68626 5.2485,1.68626 h 4.53849 z m 21.66516,-1.11188 c 2.15417,-0.66855 3.86898,-2.79125 3.86898,-4.78927 0,-1.27241 -0.22101,-1.5257 -1.33126,-1.5257 -1.04673,0 -1.33126,0.27059 -1.33126,1.26606 0,1.87982 -1.1176,2.49678 -5.61037,3.09713 -3.95715,0.52878 -4.13774,0.5023 -7.3144,-1.07219 -2.99722,-1.48557 -3.31128,-1.54318 -3.9366,-0.72204 -0.57863,0.75983 -0.46446,1.06979 0.76898,2.08763 2.47086,2.03896 5.31927,2.78599 9.43608,2.47472 2.05015,-0.155 4.50257,-0.52236 5.44985,-0.81634 z m 51.12877,-16.22538 c 4.42601,-2.41087 4.65211,-2.64029 4.07757,-4.13751 -0.26022,-0.67813 -1.23942,-0.3588 -5.58162,1.82021 -2.89632,1.45344 -5.39021,2.64262 -5.54196,2.64262 -0.15176,0 -0.29982,-2.09673 -0.32901,-4.65941 -0.0892,-7.83446 0.11655,-7.75102 -6.20385,-2.51517 -3.002,2.48687 -5.45817,4.72973 -5.45817,4.98412 0,0.2544 0.3527,0.75526 0.78377,1.11302 0.64578,0.53595 1.41922,0.12235 4.39316,-2.34928 l 3.60939,-2.99975 0.32192,3.87886 c 0.45696,5.50612 0.59639,5.72192 3.30494,5.11506 1.22688,-0.27489 4.20762,-1.57664 6.62386,-2.89277 z m -115.16116,-0.0611 c 3.45251,-1.71503 5.06583,-2.80734 5.06583,-3.42985 0,-1.73281 -1.10124,-1.57559 -5.95366,0.84998 -2.67789,1.33859 -4.97097,2.4338 -5.09572,2.4338 -0.12476,0 -0.0679,-0.94057 0.1263,-2.09016 0.42934,-2.54122 -0.39227,-4.29985 -2.00889,-4.30001 -0.64867,-6e-5 -2.67707,0.53696 -4.50755,1.19338 -2.7481,0.98547 -3.32816,1.40313 -3.32816,2.39638 0,1.48784 0.7718,1.51282 4.26004,0.13789 1.48607,-0.58576 2.78346,-1.06501 2.88308,-1.06501 0.0996,0 0.0645,1.03493 -0.0781,2.29985 -0.28499,2.5284 0.6891,4.0902 2.55106,4.0902 0.56096,0 3.29956,-1.1324 6.08577,-2.51645 z m 32.10747,-9.80385 c 2.59174,-1.25464 4.37107,-3.66198 4.37414,-5.91798 l 0.002,-1.46439 h -6.16817 c -3.39251,0 -6.07567,-0.17972 -5.9626,-0.39938 3.59857,-6.99086 4.50979,-17.40891 2.27058,-25.9596 -2.15181,-8.2169 -6.97642,-10.21437 -10.01663,-4.14706 -1.96761,3.92671 -2.71842,7.86653 -2.71842,14.26465 0,3.22165 0.3242,7.1755 0.72044,8.78633 0.8404,3.41641 2.98693,7.92497 3.94884,8.2941 0.42323,0.16241 0.58822,0.94322 0.44982,2.12875 -0.54677,4.68348 7.17157,7.2845 13.10001,4.41458 z m 60.66718,-5.76606 c 8.41905,-5.13336 8.15406,-27.29068 -0.37915,-31.70338 -8.92163,-4.61355 -16.38968,11.0962 -11.70267,24.61769 2.41988,6.98111 7.4322,9.92071 12.08182,7.08569 z m -98.35891,-9.89728 v -7.74847 l 2.1864,-5.16477 c 5.2234,-12.33885 10.6454,-20.75584 14.49683,-22.50452 4.31389,-1.95865 7.35653,-1.13165 8.93089,2.42747 1.07588,2.43219 1.35558,2.6415 2.79282,2.08998 0.71171,-0.27311 0.71464,-0.56114 0.0256,-2.51424 -1.52801,-4.33083 -4.55512,-6.07557 -9.47466,-5.46091 -3.63244,0.45384 -5.58247,1.69609 -8.57705,5.46391 -3.5979,4.52694 -6.27872,9.21876 -9.69351,16.96503 l -3.03671,6.88859 -0.20236,8.6532 -0.20237,8.6532 h 1.37708 1.37708 z m 122.37346,0.90058 c 0.56952,-0.3612 0.53512,-1.54644 -0.1891,-6.51502 -0.95935,-6.58184 -2.32249,-10.51733 -5.5129,-15.91626 -1.12775,-1.90842 -2.65547,-4.668 -3.39493,-6.13239 -1.82955,-3.62313 -4.72396,-6.3661 -8.87144,-8.40728 -3.28638,-1.61739 -3.79396,-1.70924 -9.34288,-1.69061 -4.21087,0.0141 -6.65919,0.29005 -8.67081,0.97716 -3.18086,1.08649 -8.59767,4.94597 -10.30302,7.34091 -1.04644,1.4696 -1.071,1.67602 -0.29203,2.45499 0.77897,0.77897 1.11915,0.59421 4.0458,-2.19734 1.75742,-1.6763 4.58065,-3.69485 6.27384,-4.48566 2.72754,-1.27391 3.716,-1.43838 8.66983,-1.44254 5.05401,-0.004 5.8837,0.1389 8.63426,1.48959 4.14394,2.03494 6.40462,4.83476 10.89929,13.49857 4.03011,7.76835 4.54423,9.33362 5.52599,16.8243 0.59838,4.56555 0.97288,5.18794 2.5281,4.20158 z"
         id="path15659"
         transform="scale(0.26458333)" /></g></g></svg>
