<?xml version="1.0" encoding="UTF-8" standalone="no"?>
<!-- Created with Inkscape (http://www.inkscape.org/) -->

<svg
   width="800"
   height="600"
   viewBox="0 0 80 60"
   version="1.1"
   id="svg1"
   xml:space="preserve"
   sodipodi:docname="ansys.svg"
   inkscape:version="1.4.2 (ebf0e940d0, 2025-05-08)"
   xmlns:inkscape="http://www.inkscape.org/namespaces/inkscape"
   xmlns:sodipodi="http://sodipodi.sourceforge.net/DTD/sodipodi-0.dtd"
   xmlns="http://www.w3.org/2000/svg"
   xmlns:svg="http://www.w3.org/2000/svg"><sodipodi:namedview
     id="namedview1"
     pagecolor="#ffffff"
     bordercolor="#000000"
     borderopacity="0.25"
     inkscape:showpageshadow="2"
     inkscape:pageopacity="0.0"
     inkscape:pagecheckerboard="0"
     inkscape:deskcolor="#d1d1d1"
     inkscape:zoom="0.45414322"
     inkscape:cx="285.15234"
     inkscape:cy="704.62353"
     inkscape:window-width="1803"
     inkscape:window-height="1133"
     inkscape:window-x="0"
     inkscape:window-y="0"
     inkscape:window-maximized="1"
     inkscape:current-layer="layer1" /><defs
     id="defs1"><style
       id="style1">
      .cls-1 {
        fill: #5a2d83;
      }

      .cls-2 {
        fill: #fdb71a;
      }
    </style></defs><g
     id="layer1"><rect
       style="fill:#ffffff;fill-opacity:1;stroke:none;stroke-width:1.58199"
       id="rect1"
       width="80"
       height="60.000004"
       x="0"
       y="0"
       ry="2" /></g><g
     id="g1"
     transform="matrix(0.07441488,0,0,0.07441488,-2.947292,6.694028)"><path
       class="cls-1"
       d="m 413.06,438.62 c 0,-4.83 -2.42,-8.48 -13.14,-8.48 -10.72,0 -13.14,3.62 -13.14,8.48 v 13.14 c 0,3.98 1.38,7.95 5.18,11.25 l 36.29,31.08 c 5.18,4.33 8.3,9.69 8.3,15.2 V 529 c 0,11.75 -13.82,18.32 -36.64,18.32 -25.24,0 -37.32,-5.69 -37.32,-18.32 v -17.11 h 22.83 v 16.41 c 0,5.89 4.5,9.34 14.52,9.34 9.34,0 13.84,-3.45 13.84,-9.34 v -17.47 c 0,-4.33 -1.74,-7.6 -6.57,-11.93 l -33.57,-29.17 c -6.22,-5.36 -9.69,-9.51 -9.69,-15.91 V 438.8 c 0,-12.28 12.78,-18.32 35.96,-18.32 25.59,0 35.96,6.07 35.96,17.47 v 15.91 h -22.8 v -15.23 h -0.03 z"
       id="path1" /><path
       class="cls-1"
       d="m 633.09,441.27 c 0,-12.26 9.34,-21.09 40.09,-21.09 30.75,0 40.09,8.81 40.09,21.09 v 84.68 c 0,12.28 -9.34,21.09 -40.09,21.09 -30.75,0 -40.12,-8.81 -40.12,-21.09 z m 22.8,84.35 c 0,6.92 2.77,11.75 17.29,11.75 14.52,0 17.29,-4.83 17.29,-11.75 v -84.01 c 0,-6.92 -2.77,-11.75 -17.29,-11.75 -14.52,0 -17.29,4.83 -17.29,11.75 z"
       id="path2" /><path
       class="cls-1"
       d="m 725.88,421.23 h 36.31 c 29.39,0 38.03,4.83 38.03,19.03 l -0.03,30.6 c 0,14.17 -8.63,19.03 -38.03,19.03 h -13.49 v 56.17 H 725.84 V 421.24 h 0.03 z m 33.9,58.94 c 10.37,0 17.62,-1.38 17.62,-7.78 v -33.7 c 0,-6.39 -7.25,-7.78 -17.62,-7.78 h -11.07 v 49.25 h 11.07 z"
       id="path3" /><path
       class="cls-1"
       d="m 857.19,438.35 c 0,-4.86 -2.42,-8.48 -13.14,-8.48 -10.72,0 -13.16,3.62 -13.16,8.48 v 13.14 c 0,3.98 1.38,7.95 5.18,11.22 l 36.29,31.11 c 5.18,4.33 8.28,9.66 8.28,15.2 v 19.71 c 0,11.75 -13.82,18.32 -36.64,18.32 -25.24,0 -37.35,-5.71 -37.35,-18.32 v -17.09 h 22.83 v 16.43 c 0,5.89 4.5,9.34 14.52,9.34 9.34,0 13.82,-3.45 13.82,-9.34 V 510.6 c 0,-4.33 -1.71,-7.6 -6.57,-11.93 l -33.52,-29.22 c -6.22,-5.36 -9.69,-9.51 -9.69,-15.88 v -15.05 c 0,-12.28 12.78,-18.32 35.96,-18.32 25.57,0 35.94,6.04 35.94,17.47 v 15.91 h -22.83 v -15.23 z"
       id="path4" /><path
       class="cls-1"
       d="m 1025.58,438.35 c 0,-4.83 -2.44,-8.46 -13.14,-8.46 -10.7,0 -13.14,3.62 -13.14,8.46 v 13.14 c 0,3.98 1.38,7.95 5.18,11.22 l 36.29,31.13 c 5.18,4.33 8.3,9.66 8.3,15.2 v 19.71 c 0,11.75 -13.84,18.32 -36.64,18.32 -25.24,0 -37.35,-5.71 -37.35,-18.32 v -17.11 h 22.83 l -0.03,16.43 c 0,5.89 4.5,9.34 14.55,9.34 9.31,0 13.82,-3.45 13.82,-9.34 V 510.6 c 0,-4.33 -1.74,-7.6 -6.57,-11.93 l -33.52,-29.22 c -6.22,-5.36 -9.69,-9.51 -9.69,-15.91 v -15.05 c 0,-12.26 12.78,-18.32 35.96,-18.32 25.57,0 35.94,6.07 35.94,17.47 v 15.91 h -22.8 v -15.2 z"
       id="path5" /><polygon
       class="cls-1"
       points="530.01,421.23 480,577.89 457.18,577.89 507.16,421.23 "
       id="polygon5" /><polygon
       class="cls-1"
       points="440.21,421.51 463.06,421.51 482.54,482.69 471.12,518.55 "
       id="polygon6" /><polygon
       class="cls-1"
       points="973.89,421.23 923.91,577.92 901.06,577.92 951.06,421.23 "
       id="polygon7" /><polygon
       class="cls-1"
       points="884.22,421.23 907.05,421.23 926.55,482.41 915.13,518.28 "
       id="polygon8" /><path
       class="cls-1"
       d="m 619.02,546.03 h 0.1 V 440.28 c 0,-14.17 -8.63,-19.03 -38.03,-19.03 H 537.1 v 124.8 h 22.8 l 0.03,-0.03 V 430.93 h 18.77 c 10.37,0 17.62,1.38 17.62,7.78 v 107.31 h 22.7 z"
       id="path8" /><path
       class="cls-1"
       d="m 1057.92,436.64 c 0,-8.33 6.77,-14.5 14.77,-14.5 8,0 14.67,6.14 14.67,14.5 0,8.36 -6.74,14.57 -14.67,14.57 -8,0 -14.77,-6.14 -14.77,-14.57 z m 14.77,12.15 c 6.57,0 11.75,-5.16 11.75,-12.16 0,-7 -5.18,-12.08 -11.75,-12.08 -6.57,0 -11.85,5.18 -11.85,12.08 0,7 5.18,12.16 11.85,12.16 z m -3.07,-3.72 h -2.54 v -16.76 h 6.39 c 3.95,0 5.91,1.46 5.91,4.76 0,2.99 -1.89,4.3 -4.35,4.63 l 4.78,7.37 h -2.84 l -4.43,-7.27 h -2.92 z m 3.02,-9.42 c 2.16,0 4.08,-0.15 4.08,-2.72 0,-2.09 -1.89,-2.47 -3.65,-2.47 h -3.47 v 5.18 h 3.05 z"
       id="path9" /><path
       d="m 114.94,469.01 c 0,7.81 -1.79,14.11 -5.36,18.88 -3.57,4.77 -8.41,7.16 -14.52,7.16 -6.11,0 -11.13,-1.98 -14.71,-5.93 v 24.72 h -8.78 v -71.07 h 8.02 l 0.43,5.69 c 3.57,-4.43 8.54,-6.64 14.9,-6.64 6.36,0 11.05,2.33 14.64,6.97 3.59,4.65 5.38,11.12 5.38,19.41 z m -8.78,-1 c 0,-5.79 -1.23,-10.36 -3.7,-13.71 -2.47,-3.35 -5.85,-5.03 -10.15,-5.03 -5.31,0 -9.3,2.36 -11.96,7.07 v 24.53 c 2.63,4.68 6.64,7.02 12.05,7.02 4.21,0 7.55,-1.67 10.04,-5.01 2.48,-3.34 3.72,-8.29 3.72,-14.87 z"
       id="path10" /><path
       d="m 151.15,494.11 c -0.51,-1.01 -0.92,-2.82 -1.23,-5.41 -4.08,4.24 -8.95,6.36 -14.61,6.36 -5.06,0 -9.21,-1.43 -12.45,-4.29 -3.24,-2.86 -4.86,-6.49 -4.86,-10.89 0,-5.35 2.03,-9.5 6.1,-12.45 4.06,-2.96 9.78,-4.44 17.15,-4.44 h 8.54 v -4.03 c 0,-3.07 -0.92,-5.51 -2.75,-7.33 -1.84,-1.82 -4.54,-2.73 -8.11,-2.73 -3.13,0 -5.76,0.79 -7.88,2.37 -2.12,1.58 -3.18,3.5 -3.18,5.74 h -8.83 c 0,-2.56 0.91,-5.04 2.73,-7.42 1.82,-2.39 4.29,-4.28 7.4,-5.67 3.11,-1.39 6.54,-2.09 10.27,-2.09 5.91,0 10.55,1.48 13.9,4.44 3.35,2.96 5.09,7.03 5.22,12.22 v 23.63 c 0,4.71 0.6,8.46 1.8,11.25 v 0.76 h -9.2 z m -14.57,-6.69 c 2.75,0 5.36,-0.71 7.83,-2.13 2.47,-1.42 4.25,-3.27 5.36,-5.55 v -10.53 h -6.88 c -10.75,0 -16.13,3.15 -16.13,9.44 0,2.75 0.92,4.9 2.75,6.45 1.84,1.55 4.19,2.32 7.07,2.32 z"
       id="path11" /><path
       d="m 189.47,450.65 c -1.33,-0.22 -2.77,-0.33 -4.32,-0.33 -5.76,0 -9.66,2.45 -11.72,7.36 v 36.43 h -8.78 v -51.33 h 8.54 l 0.14,5.93 c 2.88,-4.58 6.96,-6.88 12.24,-6.88 1.71,0 3.01,0.22 3.89,0.67 v 8.16 z"
       id="path12" /><path
       d="m 212.94,430.34 v 12.43 h 9.58 v 6.78 h -9.58 v 31.87 c 0,2.06 0.43,3.6 1.28,4.63 0.85,1.03 2.31,1.54 4.37,1.54 1.01,0 2.4,-0.19 4.18,-0.57 v 7.08 c -2.31,0.63 -4.56,0.94 -6.74,0.94 -3.92,0 -6.88,-1.19 -8.87,-3.56 -1.99,-2.37 -2.99,-5.74 -2.99,-10.1 v -31.83 h -9.35 v -6.78 h 9.35 v -12.43 h 8.78 z"
       id="path13" /><path
       d="m 240.9,467.97 c 0,-5.03 0.99,-9.55 2.97,-13.57 1.98,-4.02 4.73,-7.12 8.25,-9.3 3.53,-2.18 7.55,-3.27 12.07,-3.27 6.99,0 12.65,2.42 16.96,7.26 4.32,4.84 6.48,11.28 6.48,19.31 v 0.62 c 0,5 -0.96,9.48 -2.87,13.45 -1.91,3.97 -4.65,7.06 -8.21,9.28 -3.56,2.21 -7.65,3.32 -12.26,3.32 -6.96,0 -12.59,-2.42 -16.91,-7.26 -4.32,-4.84 -6.48,-11.25 -6.48,-19.22 z m 8.82,1.04 c 0,5.69 1.32,10.26 3.96,13.71 2.64,3.45 6.17,5.17 10.6,5.17 4.43,0 8,-1.75 10.63,-5.24 2.63,-3.5 3.94,-8.39 3.94,-14.68 0,-5.63 -1.34,-10.19 -4.01,-13.69 -2.67,-3.49 -6.22,-5.24 -10.65,-5.24 -4.43,0 -7.83,1.72 -10.48,5.17 -2.66,3.45 -3.99,8.38 -3.99,14.8 z"
       id="path14" /><path
       d="m 299.07,494.11 v -44.55 h -8.11 v -6.78 h 8.11 v -5.27 c 0,-5.5 1.47,-9.76 4.41,-12.76 2.94,-3 7.1,-4.51 12.48,-4.51 2.02,0 4.03,0.27 6.02,0.8 l -0.47,7.08 c -1.49,-0.29 -3.07,-0.43 -4.75,-0.43 -2.84,0 -5.04,0.83 -6.59,2.5 -1.55,1.67 -2.32,4.05 -2.32,7.16 v 5.43 h 10.96 v 6.78 h -10.96 v 44.55 z"
       id="path15" /><path
       d="m 553.83,157.97 c 10.76,12.71 15.97,31.94 15.97,57.36 v 109.51 h -55.73 v -106.9 c 0,-12.38 -2.28,-21.18 -6.84,-27.05 -4.56,-5.54 -11.73,-8.47 -21.18,-8.47 -11.73,0 -20.86,3.59 -28.03,11.08 -7.17,7.5 -10.43,17.27 -10.43,29.66 V 324.85 H 391.86 V 143.64 h 54.1 v 25.75 c 6.52,-9.78 14.67,-17.27 25.1,-22.49 10.1,-5.21 21.84,-7.82 34.55,-7.82 21.51,0 37.81,6.52 48.24,18.9"
       id="path16" /><path
       d="m 631.07,322.23 c -14.01,-3.91 -26.07,-9.45 -36.18,-16.3 l 14.67,-38.46 c 9.78,6.52 20.86,11.73 32.59,15.64 11.73,3.59 23.79,5.54 35.85,5.54 8.47,0 15.32,-1.3 20.21,-4.24 4.89,-2.93 7.17,-6.84 7.17,-11.73 0,-4.56 -1.63,-7.82 -4.89,-10.43 -3.26,-2.61 -9.45,-4.56 -18.58,-6.52 l -29.66,-6.52 c -17.6,-3.91 -30.31,-10.1 -38.78,-18.25 -8.15,-8.15 -12.38,-19.55 -12.38,-33.9 0,-11.41 3.26,-21.18 9.78,-29.98 6.52,-8.47 15.64,-15.32 27.7,-20.21 12.06,-4.89 25.42,-7.5 40.74,-7.5 13.04,0 25.75,1.96 38.13,5.87 12.38,3.91 23.47,9.45 33.24,16.62 l -14.67,36.83 c -19.23,-13.36 -38.13,-19.88 -57.04,-19.88 -8.47,0 -15.32,1.63 -20.21,4.56 -4.89,2.93 -7.5,7.17 -7.5,12.71 0,3.91 1.63,7.17 4.56,9.13 2.93,2.28 8.15,4.24 15.64,6.19 l 30.64,7.17 c 18.58,4.24 31.94,10.43 40.41,18.9 8.47,8.47 12.71,19.88 12.71,34.55 0,17.6 -6.84,31.29 -20.86,41.07 -14.01,10.1 -33.24,14.99 -57.36,14.99 -16.62,0 -31.94,-1.96 -45.95,-5.87"
       id="path17" /><path
       d="m 964.49,322.23 c -14.01,-3.91 -26.07,-9.45 -36.18,-16.3 l 14.67,-38.46 c 9.78,6.52 20.86,11.73 32.59,15.64 11.73,3.59 23.79,5.54 35.85,5.54 8.47,0 15.32,-1.3 20.21,-4.24 4.89,-2.93 7.17,-6.84 7.17,-11.73 0,-4.56 -1.63,-7.82 -4.89,-10.43 -3.26,-2.61 -9.45,-4.56 -18.58,-6.52 l -29.66,-6.52 c -17.6,-3.91 -30.31,-10.1 -38.78,-18.25 -8.15,-8.15 -12.38,-19.55 -12.38,-33.9 0,-11.41 3.26,-21.18 9.78,-29.98 6.52,-8.47 15.64,-15.32 27.7,-20.21 12.06,-4.89 25.42,-7.5 40.74,-7.5 13.04,0 25.75,1.96 38.13,5.87 12.38,3.91 23.47,9.45 33.24,16.62 l -14.67,36.83 c -19.23,-13.36 -38.13,-19.88 -57.04,-19.88 -8.47,0 -15.32,1.63 -20.21,4.56 -4.89,2.93 -7.5,7.17 -7.5,12.71 0,3.91 1.63,7.17 4.56,9.13 2.93,2.28 8.15,4.24 15.64,6.19 l 30.64,7.17 c 18.58,4.24 31.94,10.43 40.41,18.9 8.47,8.47 12.71,19.88 12.71,34.55 0,17.6 -6.84,31.29 -20.86,41.07 -14.01,10.1 -33.24,14.99 -57.36,14.99 -16.62,0 -31.94,-1.96 -45.95,-5.87"
       id="path18" /><polygon
       class="cls-2"
       points="71.47,324.84 147.09,324.84 253.99,63.78 182.29,63.78 "
       id="polygon18" /><polygon
       points="231.17,159.93 298.64,324.84 374.57,324.84 267.02,72.26 "
       id="polygon19" /><path
       d="m 71.19,346.36 h 712.55 l 1.28,-2.99 H 71.19 Z m 783.13,-2.99 -1.28,2.99 h 226.39 v -2.99 z"
       id="path19" /><polygon
       points="790.84,346.29 845.92,346.29 932.94,143.63 877.86,143.63 848.44,212.15 814.5,143.63 759.42,143.63 820.84,276.43 "
       id="polygon20" /></g></svg>
