<?xml version="1.0" encoding="UTF-8" standalone="no"?>
<!-- Created with Inkscape (http://www.inkscape.org/) -->

<svg
   width="800"
   height="600"
   viewBox="0 0 80 60"
   version="1.1"
   id="svg1"
   xml:space="preserve"
   xmlns="http://www.w3.org/2000/svg"
   xmlns:svg="http://www.w3.org/2000/svg"><defs
     id="defs1" /><g
     id="layer1"
     transform="translate(-270)"><rect
       style="fill:#ffffff;fill-opacity:1;stroke:none;stroke-width:1.58199"
       id="rect1-5-2-6"
       width="80"
       height="60.000004"
       x="270"
       y="0"
       ry="2" /><g
       id="layer1-2"
       transform="matrix(0.72043627,0,0,0.72043627,272.35417,8.7580977)"><path
         id="rect3122"
         style="fill:#df4526;fill-opacity:1;stroke-width:0.0843335;stroke-linecap:round;stroke-linejoin:round;paint-order:fill markers stroke;stop-color:#000000"
         d="M 18.184513,3.9797918 48.33177,21.385312 30.926234,51.532577 0.77898391,34.127041 Z" /><path
         id="rect3124"
         style="fill:#df4526;fill-opacity:1;stroke:#000000;stroke-width:5.35531;stroke-linecap:square;stroke-opacity:1;paint-order:fill markers stroke;stop-color:#000000"
         d="M 12.009913,15.210713 H 37.100845 V 40.301638 H 12.00991 Z" /><text
         xml:space="preserve"
         style="font-style:normal;font-variant:normal;font-weight:bold;font-stretch:normal;font-size:27.6735px;line-height:1.25;font-family:'Helvetica Now Text';-inkscape-font-specification:'Helvetica Now Text, Bold';font-variant-ligatures:normal;font-variant-caps:normal;font-variant-numeric:normal;font-variant-east-asian:normal;letter-spacing:1.40803px;fill:#000000;fill-opacity:1;stroke-width:0.691831"
         x="54.604519"
         y="37.635853"
         id="text3199"><tspan
           id="tspan3197"
           style="font-style:normal;font-variant:normal;font-weight:bold;font-stretch:normal;font-size:27.6735px;font-family:'Helvetica Now Text';-inkscape-font-specification:'Helvetica Now Text, Bold';font-variant-ligatures:normal;font-variant-caps:normal;font-variant-numeric:normal;font-variant-east-asian:normal;fill:#000000;fill-opacity:1;stroke-width:0.691831"
           x="54.604519"
           y="37.635853">EEF</tspan></text><text
         xml:space="preserve"
         style="font-style:normal;font-variant:normal;font-weight:normal;font-stretch:normal;font-size:5.82953px;line-height:1.25;font-family:'Helvetica Now Text';-inkscape-font-specification:'Helvetica Now Text, Normal';font-variant-ligatures:normal;font-variant-caps:normal;font-variant-numeric:normal;font-variant-east-asian:normal;letter-spacing:-0.294806px;white-space:pre;inline-size:103.446;display:inline;fill:#000000;fill-opacity:1;stroke-width:0.179875"
         x="68.180771"
         y="51.197956"
         id="text3253"
         transform="translate(-55.358221,11.866259)"><tspan
           x="68.180771"
           y="51.197956"
           id="tspan1">Engineering  Endowement  Fund</tspan></text><path
         id="path4877"
         style="fill:#000000;fill-opacity:1;stroke-width:0.0537868"
         d="m 24.48584,21.222426 c -0.292323,-4.94e-4 -0.573393,0.02148 -0.793146,0.06794 -0.748765,0.159303 -1.436065,0.580891 -1.857912,1.139596 l -0.223557,0.296125 h -0.696584 -0.696584 l 0.01379,0.336198 0.01379,0.336205 -0.682345,0.01393 -0.682345,0.01393 v 5.395057 c 0,2.967251 0.01592,5.411213 0.03579,5.430932 0.02059,0.02037 2.573275,0.03593 5.674543,0.03593 h 5.638643 v -5.432101 -5.432494 h -0.672327 -0.672308 v -0.349561 -0.349668 h -0.694624 -0.69473 L 27.300795,22.458589 C 26.949507,21.980036 26.450686,21.625006 25.81004,21.397553 25.491467,21.284395 24.972956,21.221568 24.485735,21.220708 Z m 0.0715,0.59779 c 0.06868,6.6e-4 0.138361,0.0037 0.208665,0.0074 0.990939,0.06246 1.726114,0.475755 2.195487,1.234528 l 0.158057,0.255503 h 0.557716 0.557695 l 0.01592,0.363032 0.01594,0.363032 0.685753,0.01393 0.685775,0.01393 v 4.785517 4.785469 H 24.555477 19.472654 V 28.85713 24.071682 l 0.685761,-0.01393 0.685783,-0.01393 0.01592,-0.363032 0.01593,-0.363032 h 0.554657 0.554671 l 0.189626,-0.285552 c 0.536035,-0.807365 1.352931,-1.221983 2.382362,-1.212154 z m -0.01053,2.873484 -1.474626,0.526726 c -2.648528,0.94606 -2.980149,1.067308 -3.021307,1.105053 -0.02289,0.02037 -0.0019,0.15093 0.04541,0.289844 0.09058,0.265747 0.136433,0.28898 0.381723,0.193587 0.08322,-0.03223 0.478184,-0.174911 0.87756,-0.316668 0.399372,-0.141756 1.277874,-0.455693 1.952294,-0.697585 l 1.226191,-0.439808 0.279869,0.09013 c 0.153796,0.04934 0.88491,0.308302 1.624484,0.575053 2.039774,0.735709 2.360833,0.847837 2.428614,0.847837 0.07681,0 0.250167,-0.489274 0.193514,-0.546048 -0.02289,-0.02252 -0.416004,-0.173467 -0.874347,-0.335553 -0.458324,-0.161983 -1.148032,-0.40756 -1.532597,-0.545652 C 26.26901,25.302611 25.63768,25.078017 25.250614,24.94168 Z m -4.105697,2.389239 v 0.158228 c 0,0.08691 0.02408,0.173139 0.05364,0.191491 0.02956,0.01822 0.05386,0.08247 0.05386,0.142615 0,0.06297 0.04424,0.120986 0.103863,0.136612 0.05705,0.01393 0.1135,0.05497 0.125641,0.08907 0.01157,0.03379 0.0046,0.703372 -0.01837,1.487324 -0.02289,0.78394 -0.04266,1.502377 -0.04496,1.596568 -0.0046,0.14561 -0.02638,0.173845 -0.152249,0.188225 -0.129318,0.01393 -0.149951,0.04291 -0.164865,0.22449 -0.0092,0.113899 -0.0046,0.241234 0.01157,0.282654 0.02482,0.06372 0.658585,0.07343 4.158594,0.06172 L 28.697566,31.628 v -0.268972 c 0,-0.250835 -0.0089,-0.269995 -0.142452,-0.285389 l -0.142438,-0.01607 -0.03126,-0.817281 c -0.01594,-0.449468 -0.04135,-1.187939 -0.05342,-1.641076 l -0.02289,-0.823863 0.128443,-0.04882 c 0.0752,-0.02845 0.128606,-0.09261 0.128606,-0.154685 0,-0.05816 0.02415,-0.120615 0.05356,-0.138909 0.02963,-0.01822 0.05356,-0.10447 0.05356,-0.191493 V 27.08315 h -4.114562 z m 3.081906,0.327077 c 0.0392,-3.09e-4 0.09082,0.0014 0.158938,0.0074 0.248101,0.01393 0.2845,0.03112 0.299932,0.140154 0.0089,0.07074 0.07223,0.144751 0.14475,0.172229 l 0.12702,0.0483 -0.02519,0.984163 c -0.01423,0.5413 -0.03905,1.280699 -0.05586,1.643082 l -0.03068,0.658941 h -0.44721 -0.447217 l -0.02963,-0.389961 c -0.01592,-0.214407 -0.04135,-0.953843 -0.05549,-1.643002 l -0.02571,-1.25298 0.131452,-0.04993 c 0.09242,-0.0349 0.131453,-0.09099 0.131453,-0.188594 0,-0.100069 0.0071,-0.127702 0.123639,-0.128606 z m -1.710915,6.98e-4 c 0.03875,-6.43e-4 0.08919,0.0014 0.155693,0.0052 0.240633,0.01393 0.277344,0.03163 0.292708,0.139933 0.0092,0.07268 0.07268,0.144928 0.1511,0.174703 0.07341,0.02793 0.120807,0.07128 0.105182,0.09632 -0.01593,0.02519 -0.02979,0.624164 -0.03208,1.331326 -0.0017,0.707172 -0.0183,1.424907 -0.03586,1.595009 l -0.03193,0.309267 h -0.449261 c -0.422715,0 -0.450617,-0.0074 -0.473732,-0.121149 -0.01379,-0.06646 -0.03897,-0.806829 -0.05667,-1.645052 -0.03186,-1.513132 -0.03141,-1.524216 0.08003,-1.553373 0.07016,-0.01822 0.124054,-0.08815 0.143534,-0.186291 0.02289,-0.113692 0.03438,-0.14475 0.150869,-0.146692 z m 3.442313,0 c 0.03868,-6.43e-4 0.08941,0.0014 0.155752,0.0052 0.238515,0.01393 0.277491,0.03223 0.29239,0.136923 0.01053,0.07453 0.06631,0.133216 0.144928,0.152914 l 0.127717,0.03223 -0.02593,1.326186 c -0.01423,0.729397 -0.03905,1.477406 -0.05497,1.662295 l -0.02912,0.336199 h -0.447135 -0.447238 l -0.03119,-0.874069 c -0.08763,-2.446489 -0.08799,-2.416927 0.02733,-2.447118 0.06335,-0.01609 0.118139,-0.09062 0.136937,-0.184572 0.02289,-0.113692 0.03423,-0.144751 0.150603,-0.146693 z m 2.008534,6.38e-4 c 0.10785,0.0037 0.13375,0.03163 0.167985,0.122601 0.02801,0.07387 0.102707,0.16177 0.165865,0.195523 0.114048,0.06097 0.114418,0.07002 0.07415,1.33453 -0.02289,0.700201 -0.04237,1.43047 -0.04482,1.622757 l -0.0053,0.349564 -0.462776,0.01607 -0.462797,0.01607 -0.0346,-0.332604 c -0.0183,-0.182964 -0.03475,-0.931287 -0.03475,-1.663075 0,-1.265658 0.0053,-1.331846 0.102886,-1.357461 0.05697,-0.01393 0.111053,-0.08407 0.120986,-0.154151 0.01593,-0.110698 0.05163,-0.129318 0.273727,-0.143699 0.05749,-0.0037 0.102529,-0.0052 0.138539,-0.0052 z m -2.703956,4.619974 c -2.627362,0 -4.446616,0.02037 -4.464661,0.04934 -0.01592,0.02682 -0.007,0.11424 0.0243,0.193751 0.03786,0.09931 0.08119,0.134298 0.139175,0.112091 0.0463,-0.01822 2.030819,-0.03223 4.409811,-0.03223 h 4.325427 V 32.192879 32.03149 Z m -4.709519,0.591699 v 0.161451 0.161397 h 4.706324 4.706443 v -0.1614 -0.161448 h -4.706464 z" /></g></g></svg>
