<svg xmlns="http://www.w3.org/2000/svg" xml:space="preserve" width="800" height="600" viewBox="0 0 80 60"><g transform="translate(-270)"><rect width="80" height="60" x="270" ry="2" style="fill:#fff;fill-opacity:1;stroke:none;stroke-width:1.58199"/><path d="m18.18 3.98 30.15 17.4-17.4 30.15L.78 34.13Z" style="fill:#df4526;fill-opacity:1;stroke-width:.0843335;stroke-linecap:round;stroke-linejoin:round;paint-order:fill markers stroke;stop-color:#000" transform="translate(272.35 8.76)scale(.72044)"/><path d="M12.01 15.21h25.1v25.1H12Z" style="fill:#df4526;fill-opacity:1;stroke:#fff;stroke-width:5.35531;stroke-linecap:square;stroke-opacity:1;paint-order:fill markers stroke;stop-color:#000" transform="translate(272.35 8.76)scale(.72044)"/><path d="M68.47 37.64H57.1V17.88h11.37v3.43h-7.2v4.34h6.7v3.43h-6.7v5.1h7.2zm16.9 0H74V17.88h11.37v3.43h-7.2v4.34h6.7v3.43h-6.7v5.1h7.2zm9.66 0H90.9V17.88h11.31v3.43h-7.2v5.09h6.7v3.43h-6.7z" aria-label="EEF" style="font-weight:700;font-size:27.6735px;line-height:1.25;font-family:&quot;Helvetica Now Text&quot;;-inkscape-font-specification:&quot;Helvetica Now Text, Bold&quot;;letter-spacing:1.40803px;stroke-width:.691831" transform="translate(272.35 8.76)scale(.72044)"/><text xml:space="preserve" x="68.18" y="51.2" style="font-style:normal;font-variant:normal;font-weight:400;font-stretch:normal;font-size:5.82953px;line-height:1.25;font-family:&quot;Helvetica Now Text&quot;;-inkscape-font-specification:&quot;Helvetica Now Text, Normal&quot;;font-variant-ligatures:normal;font-variant-caps:normal;font-variant-numeric:normal;font-variant-east-asian:normal;letter-spacing:-.294806px;white-space:pre;inline-size:103.446;display:inline;fill:#000;fill-opacity:1;stroke-width:.179875" transform="translate(232.47 17.3)scale(.72044)"><tspan x="68.18" y="51.2">Engineering  Endowement  Fund</tspan></text><path d="M24.49 21.22q-.46 0-.8.07a3.2 3.2 0 0 0-1.86 1.14l-.22.3h-1.4l.02.33.02.34-.69.01-.68.02v5.4c0 2.96.02 5.4.04 5.42s2.57.04 5.67.04h5.64V23.42h-1.34v-.7h-1.4l-.19-.26a3 3 0 0 0-1.49-1.06 5 5 0 0 0-1.32-.18m.07.6h.2q1.5.1 2.2 1.24l.16.26h1.11l.02.36.02.36.68.02.69.01v9.57H19.47v-9.57l.69-.01.68-.02.02-.36.02-.36h1.11l.19-.29a2.7 2.7 0 0 1 2.38-1.21m-.01 2.87-1.48.53a48 48 0 0 0-3.02 1.1c-.02.03 0 .16.05.3.09.26.13.28.38.19l.88-.32 1.95-.7 1.22-.44.28.1c.16.04.89.3 1.63.57 2.04.74 2.36.85 2.43.85s.25-.5.2-.55a10 10 0 0 0-.88-.33l-2.94-1.05Zm-4.1 2.4v.15q0 .14.04.2.05.03.06.14 0 .1.1.13t.13.1c.01.02 0 .7-.02 1.48l-.05 1.6c0 .14-.02.17-.15.18-.13.02-.15.05-.16.23-.01.11 0 .24 0 .28.03.06.67.07 4.17.06l4.13-.01v-.27c0-.25-.01-.27-.14-.29l-.15-.01-.03-.82-.05-1.64-.02-.82.12-.05q.13-.06.13-.16t.06-.14.05-.19v-.16h-4.12zm3.07.32h.16c.25.02.29.04.3.15q.02.12.15.17l.12.05-.02.98-.06 1.65-.03.65h-.89l-.03-.39c-.02-.21-.04-.95-.06-1.64l-.02-1.25.13-.05q.14-.06.13-.19c0-.1 0-.13.12-.13m-1.7 0h.15c.24.02.28.04.3.15q.01.11.14.17.13.05.1.1l-.03 1.33a27 27 0 0 1-.03 1.6l-.03.3h-.45c-.43 0-.45 0-.48-.12-.01-.07-.04-.8-.05-1.64-.03-1.52-.03-1.53.08-1.56q.1-.04.14-.18c.02-.12.04-.15.15-.15m3.43 0h.16c.24.02.28.04.3.14q.01.13.14.16l.13.03-.03 1.32c-.01.73-.04 1.48-.06 1.67l-.02.33h-.9l-.03-.87c-.09-2.45-.09-2.42.03-2.45q.1-.03.13-.18c.03-.12.04-.15.15-.15m2.01 0q.14 0 .17.12.06.14.17.2c.11.06.11.07.07 1.33l-.04 1.63v.35l-.47.01-.46.02-.04-.33a29 29 0 0 1-.03-1.67c0-1.26 0-1.33.1-1.35q.1-.04.12-.16c.02-.11.05-.13.27-.14zm-2.7 4.62c-2.63 0-4.45.02-4.47.05q-.02.05.03.2t.14.1a210 210 0 0 1 4.4-.03H29v-.32Zm-4.71.6v.32h9.41v-.33h-4.7z" style="fill:#fff;fill-opacity:1;stroke-width:.0537868" transform="translate(272.35 8.76)scale(.72044)"/></g></svg>