<?xml version="1.0" encoding="UTF-8" standalone="no"?>
<!-- Created with Inkscape (http://www.inkscape.org/) -->

<svg
   width="800"
   height="600"
   viewBox="0 0 80 60"
   version="1.1"
   id="svg1"
   xml:space="preserve"
   sodipodi:docname="rhystone.svg"
   inkscape:version="1.4.2 (ebf0e940d0, 2025-05-08)"
   xmlns:inkscape="http://www.inkscape.org/namespaces/inkscape"
   xmlns:sodipodi="http://sodipodi.sourceforge.net/DTD/sodipodi-0.dtd"
   xmlns="http://www.w3.org/2000/svg"
   xmlns:svg="http://www.w3.org/2000/svg"><sodipodi:namedview
     id="namedview1"
     pagecolor="#ffffff"
     bordercolor="#000000"
     borderopacity="0.25"
     inkscape:showpageshadow="2"
     inkscape:pageopacity="0.0"
     inkscape:pagecheckerboard="0"
     inkscape:deskcolor="#d1d1d1"
     showgrid="false"
     inkscape:zoom="0.93102393"
     inkscape:cx="425.8752"
     inkscape:cy="419.96772"
     inkscape:window-width="1920"
     inkscape:window-height="1043"
     inkscape:window-x="0"
     inkscape:window-y="0"
     inkscape:window-maximized="1"
     inkscape:current-layer="layer1"><inkscape:grid
       id="grid1"
       units="px"
       originx="0"
       originy="0"
       spacingx="0.1"
       spacingy="0.1"
       empcolor="#0099e5"
       empopacity="0.30196078"
       color="#0099e5"
       opacity="0.14901961"
       empspacing="5"
       enabled="true"
       visible="false" /></sodipodi:namedview><defs
     id="defs1"><rect
       x="170.62282"
       y="357.93115"
       width="589.37537"
       height="108.18671"
       id="rect42" /><rect
       x="170.62282"
       y="357.93115"
       width="760.68695"
       height="94.162827"
       id="rect42-2" /></defs><g
     id="layer1"><rect
       style="fill:#ffffff;fill-opacity:1;stroke:none;stroke-width:1.58199"
       id="rect1"
       width="80"
       height="60.000004"
       x="0"
       y="0"
       ry="2" /><path
       style="fill:#f78823;fill-opacity:0.988235;stroke-width:0.429691"
       d="m 6.7956141,24.99491 -4.4275858,-4.428462 3.6644962,0.0036 c 4.3734885,0.0043 4.6878515,0.05205 5.9387005,0.901484 1.433355,0.973373 2.144044,2.45191 2.023841,4.210453 -0.08948,1.309199 -0.704289,2.370943 -1.940248,3.350762 -0.270992,0.214829 -0.568965,0.390602 -0.662164,0.390602 -0.0932,0 -2.1618673,-1.992811 -4.5970399,-4.428465 z"
       id="path42" /><path
       style="fill:#2c3d4f;fill-opacity:0.992157;stroke-width:0.429691"
       d="m 1.6036222,29.327581 c 0,-4.832998 0.032461,-6.834907 0.111621,-6.88383 0.063803,-0.03944 0.9033274,0.710356 1.959723,1.750256 1.0164557,1.000586 2.5724248,2.526219 3.4577096,3.390305 l 1.6096076,1.571062 -3.4924246,3.493522 c -1.9208334,1.92144 -3.527032,3.493527 -3.5693303,3.493527 -0.042298,0 -0.076906,-3.06668 -0.076906,-6.814842 z"
       id="path33" /><path
       style="fill:#2c3d4f;fill-opacity:0.992157;stroke-width:0.429691"
       d="m 6.1338896,34.004544 c 1.9591228,-1.959724 3.6083473,-3.563132 3.6649433,-3.563132 0.116985,0 7.0753541,6.933884 7.0753541,7.050455 0,0.04168 -3.218027,0.07581 -7.1511691,0.07581 H 2.571849 Z"
       id="path1" /><path
       style="font-weight:bold;font-size:96px;line-height:1;font-family:inter;-inkscape-font-specification:'inter Bold';letter-spacing:1.02285px;white-space:pre;fill:#2c3e4e;fill-opacity:0.992157;stroke-width:0.5"
       d="m 176.95117,434.79363 v -69.84375 h 27.23438 q 11.90625,0 18.42187,6.23437 6.5625,6.1875 6.5625,16.5 0,7.17188 -3.1875,12.28125 -3.1875,5.0625 -9.1875,7.59375 l 14.85938,27.23438 h -15.84375 l -13.3125,-24.9375 h -11.25 v 24.9375 z M 191.24805,398.278 h 10.3125 q 12.84375,0 12.84375,-10.59375 0,-5.29687 -3.1875,-8.10937 -3.14063,-2.8125 -9.70313,-2.8125 h -10.26562 z m 49.77285,36.51563 v -69.84375 h 14.29687 v 28.21875 h 30.42188 v -28.21875 h 14.34375 v 69.84375 H 285.73965 V 405.028 h -30.42188 v 29.76563 z m 94.58535,0 v -26.25 l -25.875,-43.59375 h 16.73437 l 11.8125,21.75 q 1.3125,2.39062 2.39063,4.73437 1.125,2.29688 2.15625,5.01563 0.98437,-2.76563 2.01562,-5.0625 1.07813,-2.34375 2.34375,-4.6875 l 11.4375,-21.75 h 16.6875 l -25.45312,43.59375 v 26.25 z m 74.94471,1.03125 q -12.60937,0 -20.15625,-5.76563 -7.5,-5.8125 -7.78125,-16.92187 h 13.92188 q 0.375,5.29687 4.21875,7.96875 3.89062,2.625 9.65625,2.625 5.71875,0 9.1875,-2.4375 3.51562,-2.48438 3.51562,-6.46875 0,-3.60938 -3.1875,-5.53125 -3.14062,-1.92188 -8.85937,-3.32813 l -7.6875,-1.92187 q -8.85938,-2.15625 -13.875,-6.75 -5.01563,-4.64063 -5.01563,-12.23438 0,-6.32812 3.375,-11.0625 3.42188,-4.73437 9.32813,-7.35937 5.95312,-2.625 13.54687,-2.625 7.73438,0 13.5,2.67187 5.76563,2.625 9,7.35938 3.23438,4.6875 3.32813,10.82812 h -13.82813 q -0.375,-4.21875 -3.60937,-6.51562 -3.1875,-2.29688 -8.53125,-2.29688 -5.48438,0 -8.48438,2.29688 -2.95312,2.25 -2.95312,5.76562 0,3.89063 3.32812,5.8125 3.375,1.92188 7.82813,3 l 6.32812,1.54688 q 5.85938,1.35937 10.59375,3.9375 4.73438,2.53125 7.5,6.60937 2.76563,4.03125 2.76563,9.89063 0,9.51562 -7.125,15.23437 -7.07813,5.67188 -19.82813,5.67188 z m 34.77286,-59.01563 v -11.85937 h 57.04688 v 11.85937 h -21.32813 v 57.98438 h -14.34375 v -57.98438 z m 95.52286,58.92188 q -9.23438,0 -16.64063,-4.21875 -7.35937,-4.21875 -11.67187,-12.23438 -4.26563,-8.01562 -4.26563,-19.35937 0,-11.39063 4.26563,-19.40625 4.3125,-8.0625 11.67187,-12.28125 7.40625,-4.21875 16.64063,-4.21875 9.28125,0 16.64062,4.21875 7.35938,4.21875 11.625,12.28125 4.3125,8.01562 4.3125,19.40625 0,11.39062 -4.3125,19.40625 -4.26562,7.96875 -11.625,12.1875 -7.35937,4.21875 -16.64062,4.21875 z m 0,-12.70313 q 8.15625,0 13.07812,-5.90625 4.96875,-5.95312 4.96875,-17.20312 0,-11.29688 -4.96875,-17.25 -4.92187,-5.95313 -13.07812,-5.95313 -8.10938,0 -13.07813,6 -4.96875,5.95313 -4.96875,17.20313 0,11.20312 4.96875,17.15625 4.96875,5.95312 13.07813,5.95312 z m 44.33533,11.76563 v -69.84375 h 15.9375 l 22.07812,35.34375 q 2.0625,3.42187 4.26563,7.54687 2.20312,4.07813 4.5,9.5625 -0.375,-5.15625 -0.65625,-10.3125 -0.23438,-5.20312 -0.23438,-8.625 v -33.51562 h 14.625 v 69.84375 h -15.98437 l -20.0625,-32.0625 q -1.92188,-3.14063 -3.5625,-6.09375 -1.64063,-2.95313 -3.375,-6.28125 -1.6875,-3.375 -3.84375,-7.73438 0.375,6.32813 0.65625,11.67188 0.28125,5.29687 0.28125,8.39062 v 32.10938 z m 74.19473,0 v -69.84375 h 46.73437 v 11.85937 h -32.4375 v 16.875 h 30 v 11.67188 h -30 v 17.57812 h 32.53125 v 11.85938 z"
       id="text42"
       transform="matrix(0.11019647,0,0,0.10862451,0.49811028,-16.579041)"
       aria-label="RHYSTONE" /><path
       style="font-weight:500;font-size:96px;line-height:1;font-family:INTER;-inkscape-font-specification:'INTER Medium';letter-spacing:16.0206px;white-space:pre;fill:#2c3e4e;fill-opacity:0.992157;stroke-width:0.5"
       d="m 201.79492,435.9655 q -11.76562,0 -18.75,-5.48437 -6.98437,-5.53125 -7.45312,-15.09375 h 10.73437 q 0.46875,5.71875 4.92188,8.48437 4.45312,2.71875 10.5,2.71875 6.65625,0 11.01562,-3.09375 4.35938,-3.09375 4.35938,-8.15625 0,-4.54687 -3.84375,-6.75 -3.79688,-2.25 -9.42188,-3.75 l -8.15625,-2.25 q -8.57812,-2.29687 -13.40625,-6.79687 -4.78125,-4.5 -4.78125,-11.67188 0,-6.04687 3.23438,-10.54687 3.28125,-4.54688 8.85937,-7.03125 5.625,-2.53125 12.65625,-2.53125 7.17188,0 12.60938,2.53125 5.48437,2.48437 8.57812,6.89062 3.14063,4.35938 3.28125,9.89063 h -10.40625 q -0.51562,-4.78125 -4.45312,-7.40625 -3.89063,-2.625 -9.84375,-2.625 -6.32813,0 -10.07813,2.90625 -3.75,2.85937 -3.75,7.3125 0,3.32812 2.01563,5.39062 2.01562,2.01563 4.92187,3.23438 2.95313,1.17187 5.625,1.875 l 6.79688,1.78125 q 3.32812,0.84375 6.84375,2.29687 3.5625,1.40625 6.5625,3.70313 3,2.25 4.82812,5.625 1.875,3.32812 1.875,8.0625 0,5.90625 -3.04687,10.54687 -3.04688,4.64063 -8.85938,7.3125 -5.76562,2.625 -13.96875,2.625 z m 83.7081,-0.23437 q -9.04687,0 -16.21875,-4.3125 -7.125,-4.3125 -11.25,-12.32813 -4.07812,-8.01562 -4.07812,-19.17187 0,-11.20313 4.07812,-19.21875 4.125,-8.0625 11.25,-12.375 7.17188,-4.3125 16.21875,-4.3125 9.04688,0 16.125,4.3125 7.125,4.3125 11.20313,12.375 4.125,8.01562 4.125,19.21875 0,11.15625 -4.125,19.21875 -4.07813,8.01562 -11.20313,12.32812 -7.07812,4.26563 -16.125,4.26563 z m 0,-9.75 q 5.95313,0 10.64063,-3 4.73437,-3 7.45312,-8.8125 2.76563,-5.8125 2.76563,-14.25 0,-8.48438 -2.76563,-14.29688 -2.71875,-5.85937 -7.45312,-8.85937 -4.6875,-3 -10.64063,-3 -6,0 -10.73437,3 -4.73438,3 -7.5,8.85937 -2.71875,5.8125 -2.71875,14.29688 0,8.4375 2.71875,14.25 2.76562,5.8125 7.5,8.8125 4.73437,3 10.73437,3 z m 60.50498,8.8125 v -69.84375 h 10.6875 v 60.65625 h 31.64062 v 9.1875 z m 98.14559,1.07812 q -8.4375,0 -14.71875,-3.1875 -6.23437,-3.23437 -9.70312,-8.90625 -3.42188,-5.67187 -3.42188,-12.98437 v -45.84375 h 10.6875 V 409.903 q 0,7.07813 4.59375,11.67188 4.64063,4.59375 12.5625,4.59375 7.875,0 12.42188,-4.59375 4.59375,-4.59375 4.59375,-11.67188 v -44.95312 h 10.73437 v 45.84375 q 0,7.3125 -3.46875,12.98437 -3.46875,5.67188 -9.70312,8.90625 -6.23438,3.1875 -14.57813,3.1875 z m 55.72373,-61.73437 v -9.1875 h 54.23437 v 9.1875 h -21.70312 v 60.65625 h -10.73438 v -60.65625 z m 92.8956,-9.1875 v 69.84375 h -10.6875 v -69.84375 z m 60.59872,70.78125 q -9.04687,0 -16.21875,-4.3125 -7.125,-4.3125 -11.25,-12.32813 -4.07812,-8.01562 -4.07812,-19.17187 0,-11.20313 4.07812,-19.21875 4.125,-8.0625 11.25,-12.375 7.17188,-4.3125 16.21875,-4.3125 9.04688,0 16.125,4.3125 7.125,4.3125 11.20313,12.375 4.125,8.01562 4.125,19.21875 0,11.15625 -4.125,19.21875 -4.07813,8.01562 -11.20313,12.32812 -7.07812,4.26563 -16.125,4.26563 z m 0,-9.75 q 5.95313,0 10.64063,-3 4.73437,-3 7.45312,-8.8125 2.76563,-5.8125 2.76563,-14.25 0,-8.48438 -2.76563,-14.29688 -2.71875,-5.85937 -7.45312,-8.85937 -4.6875,-3 -10.64063,-3 -6,0 -10.73437,3 -4.73438,3 -7.5,8.85937 -2.71875,5.8125 -2.71875,14.29688 0,8.4375 2.71875,14.25 2.76562,5.8125 7.5,8.8125 4.73437,3 10.73437,3 z m 60.50495,8.8125 v -69.84375 h 12.32812 l 26.29688,41.57812 q 1.64062,2.625 3.84375,6.5625 2.20312,3.89063 4.54687,8.90625 -0.375,-5.0625 -0.5625,-9.65625 -0.14062,-4.64062 -0.14062,-7.64062 v -39.75 h 10.82812 v 69.84375 h -12.375 l -23.57812,-37.17188 q -1.73438,-2.76562 -3.32813,-5.48437 -1.54687,-2.71875 -3.42187,-6.09375 -1.875,-3.42188 -4.40625,-8.10938 0.32812,6.5625 0.5625,11.71875 0.23437,5.15625 0.23437,7.875 v 37.26563 z m 112.0675,1.17187 q -11.76562,0 -18.75,-5.48437 -6.98437,-5.53125 -7.45312,-15.09375 h 10.73437 q 0.46875,5.71875 4.92188,8.48437 4.45312,2.71875 10.5,2.71875 6.65625,0 11.01562,-3.09375 4.35938,-3.09375 4.35938,-8.15625 0,-4.54687 -3.84375,-6.75 -3.79688,-2.25 -9.42188,-3.75 l -8.15625,-2.25 q -8.57812,-2.29687 -13.40625,-6.79687 -4.78125,-4.5 -4.78125,-11.67188 0,-6.04687 3.23438,-10.54687 3.28125,-4.54688 8.85937,-7.03125 5.625,-2.53125 12.65625,-2.53125 7.17188,0 12.60938,2.53125 5.48437,2.48437 8.57812,6.89062 3.14063,4.35938 3.28125,9.89063 h -10.40625 q -0.51562,-4.78125 -4.45312,-7.40625 -3.89063,-2.625 -9.84375,-2.625 -6.32813,0 -10.07813,2.90625 -3.75,2.85937 -3.75,7.3125 0,3.32812 2.01563,5.39062 2.01562,2.01563 4.92187,3.23438 2.95313,1.17187 5.625,1.875 l 6.79688,1.78125 q 3.32812,0.84375 6.84375,2.29687 3.5625,1.40625 6.5625,3.70313 3,2.25 4.82812,5.625 1.875,3.32812 1.875,8.0625 0,5.90625 -3.04687,10.54687 -3.04688,4.64063 -8.85938,7.3125 -5.76562,2.625 -13.96875,2.625 z"
       id="text42-1"
       transform="matrix(0.06412538,0,0,0.05768846,8.3916597,12.21724)"
       aria-label="SOLUTIONS" /></g></svg>
