<?xml version="1.0" encoding="UTF-8" standalone="no"?>
<!-- Created with Inkscape (http://www.inkscape.org/) -->

<svg
   width="800"
   height="600"
   viewBox="0 0 80 60"
   version="1.1"
   id="svg1"
   xml:space="preserve"
   sodipodi:docname="solidworks.svg"
   inkscape:version="1.4.3 (0d15f75042, 2025-12-25)"
   xmlns:inkscape="http://www.inkscape.org/namespaces/inkscape"
   xmlns:sodipodi="http://sodipodi.sourceforge.net/DTD/sodipodi-0.dtd"
   xmlns="http://www.w3.org/2000/svg"
   xmlns:svg="http://www.w3.org/2000/svg"><sodipodi:namedview
     id="namedview1"
     pagecolor="#ffffff"
     bordercolor="#000000"
     borderopacity="0.25"
     inkscape:showpageshadow="2"
     inkscape:pageopacity="0.0"
     inkscape:pagecheckerboard="0"
     inkscape:deskcolor="#d1d1d1"
     inkscape:zoom="1.3866667"
     inkscape:cx="400.24038"
     inkscape:cy="300"
     inkscape:window-width="1920"
     inkscape:window-height="1043"
     inkscape:window-x="0"
     inkscape:window-y="0"
     inkscape:window-maximized="1"
     inkscape:current-layer="svg1" /><defs
     id="defs1" /><g
     id="layer1"
     transform="translate(-180)"><rect
       style="fill:#ffffff;fill-opacity:1;stroke:none;stroke-width:1.58199"
       id="rect1-5-2"
       width="80"
       height="60.000004"
       x="180"
       y="0"
       ry="2" /></g><style
     type="text/css"
     id="style1">
	.st0{fill-rule:evenodd;clip-rule:evenodd;fill:#DA291C;}
</style><path
     class="st0"
     d="M 46.053255,6.5090356 C 45.508752,4.879516 42.58628,4.3874461 40.116639,4.4967372 37.664411,4.6049834 35.428068,5.191768 35.567483,5.6413821 c 0.146068,0.4685876 1.381566,0.4369017 2.134559,0.4176674 0.128972,-0.00329 0.243911,-0.0062 0.336644,-0.0062 2.335467,0 4.584538,0.4285412 5.121888,1.0455291 0.837658,0.9636194 -0.604899,3.3404544 -5.041541,6.5807234 -0.851133,0.621904 -1.486407,1.194123 -1.626873,1.474802 -0.07619,0.149594 -0.03995,0.366843 0.193085,0.396947 0.244097,0.03158 0.829762,-0.09663 1.795696,-0.565223 3.94146,-1.911575 8.464432,-5.8058396 7.572265,-8.4765109 z m 4.61298,6.7986364 -0.06783,-0.01109 c -2.180277,-0.356528 -6.080798,-0.49665 -7.41426,1.54687 -0.983709,1.508409 0.747064,3.548116 2.44828,5.552944 0.08083,0.09488 0.160755,0.189645 0.240843,0.284236 0.15109,0.178592 0.303565,0.356251 0.454744,0.532423 l 3.24e-4,3.26e-4 c 1.270112,1.479884 2.44514,2.84912 1.880475,3.685841 -0.4435,0.658978 -2.955652,0.749294 -4.371469,0.800215 -0.2283,0.0082 -0.428167,0.01587 -0.586223,0.02417 -0.379012,0.02045 -1.227321,0.05018 -1.227321,0.05018 v 0 c 0,0 -2.240374,0.0799 -2.492927,0.215848 -0.312299,0.168269 -0.486057,0.690848 0.684064,0.899544 0.939398,0.168561 3.175657,0.510867 5.536426,0.509101 2.464159,-5.68e-4 5.052578,-0.404104 5.614102,-2.311931 0.407169,-1.383343 -0.701444,-2.972038 -2.083714,-4.354306 l -8.4e-5,-8.5e-5 -1.58e-4,-1.59e-4 -8.2e-5,-1.56e-4 -1.58e-4,-1.59e-4 -8.4e-5,-1.59e-4 -1.58e-4,-8.2e-5 -8.3e-5,-1.59e-4 -1.59e-4,-1.57e-4 -8.4e-5,-1.58e-4 -8.4e-5,-8.4e-5 -1.57e-4,-1.58e-4 -8.4e-5,-1.58e-4 -1.67e-4,-1.58e-4 -8.4e-5,-1.57e-4 C 49.14539,20.56938 49.010377,20.408452 48.877224,20.24724 48.535842,19.833753 48.193531,19.447211 47.869656,19.081486 l -8.5e-5,-1.6e-4 c -1.104512,-1.247151 -1.993695,-2.251172 -1.894421,-3.250118 0.09867,-1.00338 2.068969,-1.061482 5.33665,-1.118693 0.681648,-0.01297 2.034391,-0.04553 1.773532,-0.582412 -0.228299,-0.465149 -1.208031,-0.624971 -2.419084,-0.822607 z M 8.889508,37.566614 c 0.3957086,-2.393818 2.015728,-4.400564 5.032956,-4.400564 3.016587,0 3.979537,2.006746 3.586145,4.400564 -0.394891,2.396413 -2.017553,4.399025 -5.030531,4.399025 -3.0181269,0 -3.9773522,-2.002612 -3.58857,-4.399025 z m 6.753329,0 c -0.318965,1.959555 -1.21879,2.953095 -2.93048,2.953095 -1.709744,0 -2.280302,-0.99354 -1.95696,-2.953095 0.319712,-1.95867 1.216072,-2.953333 2.930064,-2.953333 1.710743,0 2.27877,0.994663 1.957376,2.953333 z M 34.597312,16.67053 c 2.052522,-0.107132 4.545765,0.213898 5.946195,1.174135 0.696237,0.476858 1.185908,1.354974 0.902424,2.361578 -0.808205,2.85661 -3.824932,6.312868 -10.528671,8.968663 -2.131587,0.844629 -3.807602,1.167614 -4.159337,0.940919 -0.331346,-0.213341 0.471562,-1.686905 0.898057,-2.469558 l 6.6e-5,-1.66e-4 1.29e-4,-2.42e-4 1.59e-4,-2.42e-4 c 0.0604,-0.110286 0.112706,-0.206928 0.153687,-0.284329 1.070095,-2.026171 2.407182,-3.999163 3.710595,-5.805497 0.04553,-0.06318 0.09339,-0.130549 0.143373,-0.200891 l 9.4e-5,-8.4e-5 c 0.476671,-0.671615 1.141373,-1.608018 1.748706,-1.524521 0.600811,0.0827 -0.102948,1.307995 -0.56578,2.087012 -0.777635,1.307512 -2.919776,4.939275 -2.213168,5.156138 1.562163,0.480295 8.89195,-4.51685 7.811132,-7.300369 -0.501017,-1.291474 -3.683585,-1.414609 -5.687612,-1.414609 -0.158147,0 -0.348815,0.0059 -0.556489,0.01203 h -5.93e-4 -8.4e-5 -6.6e-5 -7.3e-5 -7.5e-5 -7.5e-5 c -0.989928,0 -2.364589,0.07251 -2.455612,-0.444665 -0.118746,-0.577117 3.025034,-1.158509 4.85314,-1.255367 z M 2.7993436,37.011527 C 2.0453469,36.483507 1.8374625,35.680113 1.9436449,35.006435 2.0972699,34.025773 2.9371843,33.166056 3.8993047,33.166056 h 4.3289812 v 0.89905 c -0.061285,0.406534 -0.2885933,0.81418 -0.6909262,0.81418 H 4.2616241 c -0.3257731,0 -0.5125614,0.0854 -0.5388463,0.293495 -0.017029,0.122783 0.040179,0.209398 0.2710244,0.375143 l 2.8664548,2.036572 c 0.6141604,0.435 0.9312922,1.114254 0.7802215,2.062911 -0.1601638,1.00972 -0.9558623,1.958138 -2.5667367,1.958138 H 1.3972332 v -1.169296 c 0.062648,-0.381272 0.246576,-0.540752 0.5798396,-0.540752 h 3.137534 c 0.558662,0 0.7238168,-0.13047 0.7734315,-0.444943 0.033362,-0.227781 -0.1030948,-0.360842 -0.389647,-0.556142 z m 21.0087924,3.220985 h -3.584198 l 1.235506,-6.776011 c 0.02724,-0.137691 -0.07328,-0.290431 -0.242831,-0.290431 h -1.577685 l -1.54036,8.43951 h 5.939863 l 0.15274,-0.846839 c 0.06742,-0.373577 -0.0572,-0.526182 -0.382975,-0.526182 z m 47.760289,-7.014368 h 0.415797 c 0.0762,0 0.158869,0.01016 0.229757,0.06606 0.06912,0.05107 0.105688,0.148383 0.103911,0.228056 0,0.201837 -0.121073,0.305888 -0.121073,0.305888 l -4.345529,3.686247 3.254122,3.536361 c 0,0 0.12523,0.151922 0.12523,0.305481 0,0.08274 -0.03677,0.178138 -0.109845,0.233025 -0.0685,0.04903 -0.145862,0.05992 -0.229757,0.06401 h -0.411029 l -3.437232,-3.736808 -0.689204,3.733084 h -0.926036 l 1.569179,-8.437024 h 0.415797 c 0.0939,0 0.190125,0.02997 0.266937,0.09125 0.07382,0.05039 0.160026,0.176166 0.12285,0.358869 l -0.574665,3.280399 z m -36.976116,-0.05175 h -4.540945 l -0.02315,0.135035 c -0.104659,0.574257 -0.05788,1.234737 0.849379,1.234737 h 3.361666 c 1.33189,0 1.841796,0.965368 1.513844,2.774212 -0.302008,1.655109 -1.198061,2.922505 -2.553389,2.922505 h -1.825085 l 0.869223,-4.745874 h -1.552407 c -0.208783,0 -0.357029,0.150901 -0.376777,0.286891 l -1.066063,5.829416 h 3.557859 c 2.628574,0 4.460264,-1.232374 5.024272,-4.355144 0.442967,-2.394881 -0.559275,-4.081764 -3.238411,-4.081764 z m 24.521876,0.03609 h 2.170402 c 1.280389,0 2.407227,0.01976 3.06277,0.76953 0.373849,0.429961 0.40102,1.222922 0.297105,1.708089 -0.130536,0.600406 -0.696892,2.102244 -2.825359,2.293825 l 1.792426,3.066844 c 0,0 0.119923,0.186039 0.119923,0.30548 0.0029,0.08274 -0.03336,0.17814 -0.106918,0.233025 -0.06967,0.04903 -0.145861,0.06401 -0.230301,0.06401 h -0.468912 l -2.102475,-3.619575 -1.691432,-0.0095 -0.657335,3.629319 h -0.927805 z m 3.131875,3.834602 c -0.515557,0.137896 -1.239633,0.163364 -1.990859,0.163364 -0.150628,-0.0023 -0.335443,-0.004 -0.527406,-0.0059 h -5.86e-4 c -0.14879,-0.0015 -0.302347,-0.0029 -0.447053,-0.0047 l 0.553964,-3.071861 c 0.0933,-4.16e-4 0.232686,-0.0016 0.398024,-0.0032 0.610688,-0.0056 1.580994,-0.0143 1.963109,0.0057 0.193735,0.01016 0.366768,0.02383 0.471295,0.04426 0.398636,0.07579 0.658492,0.153354 0.826813,0.320393 0.727589,0.692568 0.07497,2.195196 -1.247321,2.551728 z m 11.171482,-1.864295 c 0.0082,-0.630981 0.178957,-1.965226 1.806018,-1.970368 h 3.485035 v 0.639494 c 0.0029,0.103843 -0.105688,0.23609 -0.205514,0.252977 l 0.0053,0.02315 -0.0065,-0.02315 c -0.02588,0.0075 -3.126542,0.01163 -3.130097,0.01163 -0.636088,0 -1.026424,0.414366 -1.029964,0.932886 0.0035,0.306638 0.177187,0.591009 0.455905,0.866506 l 2.24895,2.213451 c 0.0036,0 0.807323,0.675312 0.807323,1.549928 v 0.0033 c -0.0068,0.629482 -0.180726,1.964165 -1.806582,1.970246 h -3.446064 v -0.632888 l -0.01096,-0.0052 h 0.01096 c -0.0017,-0.104939 0.100368,-0.236975 0.203131,-0.255837 0.01906,-0.0067 1.359531,-0.0088 2.270803,-0.01016 h 5.92e-4 v 0 h 5.79e-4 v 0 c 0.470137,-7.7e-4 0.826234,-0.0013 0.826826,-0.0023 0.634318,0.0027 1.027615,-0.417703 1.027615,-0.933003 0,-0.305956 -0.13878,-0.629142 -0.420495,-0.904299 L 74.138648,36.57479 C 73.898881,36.365054 73.417542,35.836313 73.417542,35.172788 Z M 28.279557,33.16605 h -1.578983 l -1.542897,8.436908 H 27.03319 L 28.522941,33.4539 c 0.02588,-0.135104 -0.07444,-0.287844 -0.243377,-0.287844 z m 25.78868,0.01566 v 0.0043 c 2.534779,0.294652 3.289553,2.554512 2.778107,4.716817 -0.56874,2.398422 -2.298551,4.291773 -5.057168,4.080172 -2.569039,-0.298535 -3.301367,-2.561841 -2.758026,-4.721074 0.594684,-2.397292 2.318626,-4.290528 5.037087,-4.080164 z m 1.873331,4.648074 c -0.584674,2.459545 -2.251898,3.373774 -3.8193,3.28932 l -0.15417,-0.0082 c -1.517799,-0.194415 -2.637549,-1.365196 -2.041651,-3.776019 0.610075,-2.458776 2.379464,-3.372057 3.928561,-3.287604 1.537303,0.156962 2.658809,1.371216 2.086534,3.782161 z m -7.023813,-4.552337 c 0.07851,0.0606 0.116916,0.174461 0.113374,0.258016 0,0.07585 -0.01635,0.114336 -0.03882,0.167041 l -0.0047,0.01163 -3.254115,7.321591 c -0.167312,0.382088 -0.488591,0.603743 -0.873628,0.603743 H 44.25043 l -0.939029,-4.602422 -2.266663,4.037113 c -0.105688,0.167109 -0.22322,0.305344 -0.362612,0.406672 -0.152945,0.110994 -0.338985,0.162341 -0.545725,0.158664 h -0.716966 v -8.437031 h 0.55158 c 0.08744,0 0.178345,0.01566 0.258086,0.08172 0.08389,0.06469 0.119308,0.182567 0.119308,0.276539 l -0.02588,7.023876 2.584986,-4.504562 h 0.549809 c 0.334285,-0.01839 0.613004,0.220088 0.662034,0.568877 l 0.854568,3.976051 3.274789,-7.422517 h 0.426419 c 0.08329,-6e-6 0.167109,0.01567 0.242764,0.07532 z"
     id="path1-7"
     style="stroke-width:0.680964"
     sodipodi:nodetypes="ccccscccccccccccccccscssccccscccccccccccccccccccccccscsccscsccccccccccccccccccsccccccscccccsccssccccsccssccccccscccccccscccccscccccccscccccccsscsccsccscsccsccccccsccccccccsscccsccccsccccccscccscccccccscccscsccsscccccsccccccccccccccccccccscccccccsccccccccccc" /></svg>
