<?xml version="1.0" encoding="UTF-8" standalone="no"?>
<!-- Created with Inkscape (http://www.inkscape.org/) -->

<svg
   width="800"
   height="600"
   viewBox="0 0 80 60"
   version="1.1"
   id="svg1"
   xml:space="preserve"
   sodipodi:docname="tmotor.svg"
   inkscape:version="1.4.2 (ebf0e940d0, 2025-05-08)"
   xmlns:inkscape="http://www.inkscape.org/namespaces/inkscape"
   xmlns:sodipodi="http://sodipodi.sourceforge.net/DTD/sodipodi-0.dtd"
   xmlns="http://www.w3.org/2000/svg"
   xmlns:svg="http://www.w3.org/2000/svg"><sodipodi:namedview
     id="namedview1"
     pagecolor="#ffffff"
     bordercolor="#000000"
     borderopacity="0.25"
     inkscape:showpageshadow="2"
     inkscape:pageopacity="0.0"
     inkscape:pagecheckerboard="0"
     inkscape:deskcolor="#d1d1d1"
     inkscape:zoom="0.46359688"
     inkscape:cx="253.45295"
     inkscape:cy="267.47376"
     inkscape:window-width="1920"
     inkscape:window-height="1043"
     inkscape:window-x="0"
     inkscape:window-y="0"
     inkscape:window-maximized="1"
     inkscape:current-layer="layer1" /><defs
     id="defs1" /><g
     id="layer1"><rect
       style="fill:#ffffff;fill-opacity:1;stroke:none;stroke-width:1.58199"
       id="rect1"
       width="80"
       height="60.000004"
       x="0"
       y="0"
       ry="2" /><path
       d="m 45.63681,26.794884 -0.15555,-0.29652 -0.213884,-0.267354 -0.272215,-0.228466 -0.311102,-0.179856 -0.34513,-0.131247 -0.379156,-0.07777 -0.408323,-0.02917 h -4.681124 l -0.427767,0.02917 -0.413182,0.07777 -0.398601,0.131247 -0.379156,0.179856 -0.359713,0.228466 -0.330547,0.267354 -0.272215,0.29652 -0.218744,0.315963 -0.160412,0.34513 -0.102081,0.364574 -0.524986,2.595763 -0.04375,0.384018 v 0.345129 l 0.0875,0.315964 0.15069,0.281937 0.223605,0.262493 0.267355,0.223605 0.306241,0.179856 0.34513,0.126385 0.384018,0.07291 h 0.418044 4.681124 0.422905 l 0.408323,-0.07291 0.418044,-0.126385 0.384017,-0.179856 0.364573,-0.223605 0.320825,-0.262493 0.272215,-0.286798 0.213884,-0.320825 0.165273,-0.34513 0.106941,-0.369434 0.529847,-2.595764 0.04375,-0.364573 -0.0243,-0.345129 z m -4.229053,4.720011 h -2.469378 a 1.6721772,1.6721772 0 0 1 -1.613844,-2.114526 l 0.359712,-1.327047 a 1.6721772,1.6721772 0 0 1 1.613846,-1.23469 h 2.430489 a 1.6721772,1.6721772 0 0 1 1.623568,2.075639 l -0.325686,1.327048 a 1.6721772,1.6721772 0 0 1 -1.623567,1.273576"
       id="path1"
       style="display:inline;fill:#000000;fill-opacity:1;stroke:none;stroke-width:0.486098;stroke-opacity:1" /><path
       d="m 66.140426,26.794884 -0.155552,-0.29652 -0.213883,-0.267354 -0.272215,-0.228466 -0.311103,-0.179856 -0.345129,-0.131247 -0.379157,-0.07777 -0.408322,-0.02917 h -4.66168 l -0.427766,0.02917 -0.413184,0.07777 -0.3986,0.131247 -0.379156,0.179856 -0.359713,0.228466 -0.330546,0.267354 -0.272215,0.29652 -0.218745,0.315963 -0.160412,0.34513 -0.10208,0.364574 -0.524986,2.595763 -0.04375,0.384018 v 0.345129 l 0.0875,0.315964 0.15069,0.281937 0.223606,0.262493 0.267354,0.223605 0.306241,0.179856 0.34513,0.126385 0.384017,0.07291 h 0.418044 4.681124 0.422906 l 0.408322,-0.07291 0.39374,-0.126385 0.384017,-0.179856 0.364574,-0.223605 0.320825,-0.262493 0.272215,-0.286798 0.213882,-0.320825 0.165273,-0.34513 0.106942,-0.369434 0.529847,-2.595764 0.04375,-0.364573 -0.0243,-0.345129 z m -4.068641,4.720011 h -2.469378 a 1.6721772,1.6721772 0 0 1 -1.613845,-2.114526 l 0.359712,-1.327047 a 1.6721772,1.6721772 0 0 1 1.613845,-1.23469 h 2.430491 a 1.6721772,1.6721772 0 0 1 1.623567,2.075639 l -0.325685,1.327048 a 1.6721772,1.6721772 0 0 1 -1.623568,1.273576"
       id="path2"
       style="display:inline;fill:#000000;fill-opacity:1;stroke:none;stroke-width:0.486098;stroke-opacity:1" /><path
       d="m 76.965829,26.780301 -0.116664,-0.29652 -0.174995,-0.281937 -0.223605,-0.233327 -0.228466,-0.155552 -0.262494,-0.111801 -0.330546,-0.08264 -0.403461,-0.02917 h -7.743542 l -1.424267,7.048421 h 1.861756 l 1.049971,-5.288747 a 0.6173445,0.6173445 0 0 1 0.607622,-0.486098 l 5.283886,0.02917 h 0.0875 0.07777 0.06319 l 0.04861,0.03403 0.04861,0.03889 0.03889,0.05833 0.02917,0.07777 v 0.116663 0.194439 l -0.160413,0.904143 -0.07777,0.228466 -0.06806,0.121525 -0.06319,0.0875 -0.06319,0.05833 -0.05833,0.04374 -0.06319,0.03403 h -0.06806 -0.07777 -3.17422 a 0.62220548,0.62220548 0 0 0 -0.486098,0.972196 l 1.997863,2.683262 h 2.542293 l -1.876328,-2.299245 h 0.709703 0.384017 l 0.369435,-0.07777 0.311102,-0.111802 0.29166,-0.15069 0.311102,-0.218745 0.296519,-0.277075 0.24305,-0.291659 0.204161,-0.311103 0.165273,-0.335408 0.121525,-0.364573 0.08263,-0.374296 0.02917,-0.359712 v -0.340268 z"
       id="path3"
       style="display:inline;fill:#000000;fill-opacity:1;stroke:none;stroke-width:0.486098;stroke-opacity:1" /><path
       d="M 78.351208,35.024523 V 22.76027 H 2.5199162 V 35.029385 H 78.351208 Z M 13.418234,26.862937 H 10.501646 L 9.0190466,32.62806 H 6.1024587 l 0.1118025,-0.311103 0.038888,-0.106941 0.043749,-0.106942 0.038887,-0.08264 0.072911,-0.09722 0.038891,-0.08264 0.038891,-0.08263 0.038891,-0.0875 0.043745,-0.0875 0.038891,-0.0875 0.043753,-0.09236 0.043745,-0.0875 0.043753,-0.0875 0.048607,-0.09236 0.048607,-0.09236 0.048607,-0.09722 0.048607,-0.09236 0.048607,-0.09722 0.05347,-0.09722 0.05347,-0.09722 0.05347,-0.09722 0.05347,-0.09722 0.058332,-0.09722 0.058332,-0.102081 0.058332,-0.10208 0.063194,-0.09722 0.063195,-0.102081 0.063194,-0.10208 0.068057,-0.10208 0.068057,-0.102081 0.068057,-0.102081 0.068057,-0.10208 0.072919,-0.102081 0.072911,-0.10208 0.072919,-0.09722 0.077773,-0.102081 0.077773,-0.09722 0.082636,-0.10208 0.087497,-0.09722 0.087498,-0.102081 0.087497,-0.09722 0.087498,-0.09722 0.092358,-0.09722 0.09722,-0.09722 0.097219,-0.09722 0.09722,-0.09722 0.1020802,-0.09722 0.1020803,-0.09236 0.1069419,-0.09236 0.1069425,-0.09236 0.106941,-0.09236 0.111802,-0.0875 0.111803,-0.0875 0.116664,-0.0875 0.1166629,-0.0875 0.121525,-0.0875 0.121524,-0.08264 0.126386,-0.08263 0.126385,-0.07777 0.131246,-0.07777 0.131247,-0.07777 0.136108,-0.07777 0.140968,-0.07291 0.140968,-0.07291 0.145829,-0.07291 0.14583,-0.06806 0.15069,-0.06806 0.155552,-0.06319 0.155551,-0.06319 0.155552,-0.06319 0.165273,-0.05833 0.165273,-0.05833 0.170134,-0.05347 0.170135,-0.05347 0.170135,-0.04861 0.179856,-0.04861 0.179856,-0.04375 0.184717,-0.04375 0.184717,-0.03889 h -0.04376 -0.09722 -0.09722 -0.09722 -0.09722 -0.09722 -0.10208 -0.09722 -0.09722 -0.09722 -0.10208 -0.09722 -0.09722 -0.09722 -0.09722 -0.09722 l -0.09722,0.0243 h -0.09722 l -0.09722,0.02917 -0.09722,0.0243 -0.09722,0.02917 -0.09722,0.02917 -0.09722,0.02917 -0.09236,0.02917 -0.09722,0.02917 -0.09236,0.03403 -0.09236,0.03403 -0.09236,0.03403 -0.09236,0.03403 -0.09236,0.03889 -0.09236,0.03403 -0.09236,0.03889 -0.09236,0.03403 -0.09236,0.03889 -0.0875,0.03889 -0.09236,0.03889 -0.0875,0.03889 -0.0875,0.04375 -0.0875,0.03889 -0.0875,0.04374 -0.0875,0.04375 -0.0875,0.04375 -0.0875,0.04374 -0.08264,0.04375 -0.0875,0.04861 -0.08264,0.04375 -0.082636,0.04861 -0.077773,0.04861 -0.082636,0.04861 -0.077773,0.04861 -0.077773,0.04861 -0.077773,0.05347 -0.077773,0.05347 -0.077773,0.05347 -0.077773,0.05347 -0.072911,0.05347 -0.072911,0.05347 -0.072911,0.05347 -0.072911,0.05347 -0.072919,0.05833 -0.068057,0.05347 -0.068057,0.05833 -0.068057,0.05833 -0.068057,0.05833 -0.068057,0.05833 -0.063194,0.05833 -0.063194,0.05833 -0.063194,0.0632 -0.058332,0.05833 -0.063195,0.06319 -0.058332,0.05833 -0.058332,0.05833 -0.058332,0.0632 -0.05347,0.06319 -0.058332,0.0632 -0.05347,0.06319 -0.05347,0.05833 -0.048607,0.06319 -0.048607,0.06319 -0.048607,0.0632 -0.043753,0.06806 0.4860986,-2.075639 h -2.916549 l 0.4520712,-1.278496 h 8.6914321 z m 2.367298,-3.71865 H 77.957469 V 34.635645 H 15.785532 Z"
       id="path4"
       style="display:inline;fill:#000000;fill-opacity:1;stroke:none;stroke-width:0.486098;stroke-opacity:1" /><path
       id="polygon4"
       style="display:inline;fill:#000000;stroke-width:0.486098"
       d="m 46.336792,26.87752 0.233326,-1.288159 h 9.381693 L 55.718483,26.87752 H 52.27691 l -1.331909,5.755401 h -2.498543 l 1.327046,-5.755401 z" /><path
       id="polygon5"
       style="display:inline;fill:#000000;stroke-width:0.486098"
       d="m 16.874391,29.429535 0.170134,-0.99164 h 5.541518 l -0.165273,0.99164 z" /><path
       d="m 33.032289,25.603943 -3.888785,5.283886 -2.357575,-5.283886 h -1.944392 l -1.419406,7.028978 h 1.856894 l 0.748591,-4.287384 a 0.15069039,0.15069039 0 0 1 0.291659,-0.03403 l 1.920087,4.321412 h 1.268716 l 3.188803,-4.374882 a 0.15069039,0.15069039 0 0 1 0.272215,0.121525 l -0.874977,4.248496 h 1.677039 l 1.424267,-7.048421 z"
       id="path5"
       style="display:inline;fill:#000000;fill-opacity:1;stroke:none;stroke-width:0.486098;stroke-opacity:1" /><path
       d="m 15.051524,37.270296 a 0.5687347,0.5687347 0 0 0 -0.204162,-0.06806 2.6881221,2.6881221 0 0 0 -0.384017,0 H 13.70017 a 0.97219609,0.97219609 0 0 1 -0.486097,-0.07777 0.32568568,0.32568568 0 0 1 -0.116664,-0.291659 0.31596372,0.31596372 0 0 1 0.116664,-0.286798 0.91872525,0.91872525 0 0 1 0.456932,-0.07777 h 0.74373 a 0.82636666,0.82636666 0 0 1 0.437488,0.07292 0.34026862,0.34026862 0 0 1 0.102081,0.291659 v 0.03403 h 0.257632 v -0.08263 a 0.82150567,0.82150567 0 0 0 -0.03403,-0.262493 0.37915646,0.37915646 0 0 0 -0.111802,-0.170135 0.55901273,0.55901273 0 0 0 -0.252771,-0.106942 3.4999058,3.4999058 0 0 0 -0.568735,-0.02917 H 13.7585 a 1.4096843,1.4096843 0 0 0 -0.734008,0.136107 0.52498587,0.52498587 0 0 0 -0.1993,0.486098 0.54929078,0.54929078 0 0 0 0.174995,0.486099 1.0353888,1.0353888 0 0 0 0.612484,0.136107 h 0.918725 a 0.65623234,0.65623234 0 0 1 0.384017,0.07777 0.34999058,0.34999058 0 0 1 0.09236,0.281937 0.3694345,0.3694345 0 0 1 -0.136107,0.335408 1.224967,1.224967 0 0 1 -0.578458,0.0875 h -0.593039 a 1.0791376,1.0791376 0 0 1 -0.486098,-0.08263 0.30624176,0.30624176 0 0 1 -0.136107,-0.286798 c 0,0 0,-0.04375 0,-0.0875 v -0.04375 h -0.262493 a 0.21874411,0.21874411 0 0 0 0,0.0243 c 0,0.06319 0,0.111802 0,0.136108 a 0.48609803,0.48609803 0 0 0 0.184717,0.437488 1.1131645,1.1131645 0 0 0 0.627067,0.131246 h 0.738868 A 1.254133,1.254133 0 0 0 15.070966,38.33 a 0.58817862,0.58817862 0 0 0 0.194439,-0.486098 0.97219609,0.97219609 0 0 0 -0.04861,-0.34513 0.3694345,0.3694345 0 0 0 -0.160412,-0.184717"
       id="path6"
       style="display:inline;fill:#000000;fill-opacity:1;stroke:none;stroke-width:0.486098;stroke-opacity:1" /><path
       d="M 16.991055,36.244629 15.7272,38.422348 h 0.306241 l 0.277076,-0.486097 h 1.730509 l 0.286798,0.486097 h 0.286798 l -1.263855,-2.177719 z m -0.54443,1.458294 0.729146,-1.249272 0.738869,1.249272 z"
       id="path7"
       style="display:inline;fill:#000000;fill-opacity:1;stroke:none;stroke-width:0.486098;stroke-opacity:1" /><path
       id="polygon7"
       style="display:inline;fill:#000000;stroke-width:0.486098"
       d="m 8.892661,38.422348 h 2.138832 V 38.179299 H 9.1551545 V 37.411264 H 10.953717 V 37.173076 H 9.1551545 v -0.685397 h 1.8763385 v -0.24305 H 8.892661 Z" /><path
       id="polygon8"
       style="display:inline;fill:#000000;stroke-width:0.486098"
       d="m 2.5101942,36.487679 h 1.0791376 v 1.934669 h 0.2673539 v -1.934669 h 1.0791377 v -0.24305 H 2.5101942 Z" /><path
       id="polygon9"
       style="display:inline;fill:#000000;stroke-width:0.486098"
       d="M 7.7989406,37.182799 H 5.8302438 v -0.93817 H 5.5580289 v 2.177719 h 0.2722149 v -1.001361 h 1.9686968 v 1.001361 H 8.0711555 V 36.244629 H 7.7989406 Z" /><path
       d="m 31.228865,36.356432 a 1.3902404,1.3902404 0 0 0 -0.685399,-0.111803 h -1.511764 v 2.177719 h 0.272215 v -0.860393 h 1.244411 a 1.4096843,1.4096843 0 0 0 0.685398,-0.111802 0.44721019,0.44721019 0 0 0 0.165273,-0.403462 v -0.262493 a 0.45207117,0.45207117 0 0 0 -0.165273,-0.408322 m -0.121525,0.59304 a 0.34999058,0.34999058 0 0 1 -0.09722,0.296519 0.72428607,0.72428607 0 0 1 -0.388878,0.06806 h -1.317327 v -0.836088 h 1.317327 a 0.72428607,0.72428607 0 0 1 0.388878,0.06806 0.34999058,0.34999058 0 0 1 0.09722,0.296521 z"
       id="path9"
       style="display:inline;fill:#000000;fill-opacity:1;stroke:none;stroke-width:0.486098;stroke-opacity:1" /><path
       id="polygon10"
       style="display:inline;fill:#000000;stroke-width:0.486098"
       d="m 45.291681,36.244629 h -0.272215 v 2.177719 h 1.963836 V 38.18416 h -1.691621 z" /><path
       d="m 40.92166,36.356432 a 1.3902404,1.3902404 0 0 0 -0.685399,-0.111803 h -1.511764 v 2.177719 h 0.252771 v -0.860393 h 1.24441 a 1.4096843,1.4096843 0 0 0 0.685399,-0.111802 0.45207117,0.45207117 0 0 0 0.165273,-0.403462 v -0.262493 a 0.45207117,0.45207117 0 0 0 -0.165273,-0.408322 m -0.121524,0.59304 a 0.34999058,0.34999058 0 0 1 -0.09722,0.296519 0.72428607,0.72428607 0 0 1 -0.388878,0.06806 h -1.322186 v -0.836088 h 1.317325 a 0.72428607,0.72428607 0 0 1 0.388879,0.06806 0.34999058,0.34999058 0 0 1 0.09722,0.296521 z"
       id="path10"
       style="display:inline;fill:#000000;fill-opacity:1;stroke:none;stroke-width:0.486098;stroke-opacity:1" /><path
       d="m 43.94519,37.581399 v 0.07291 a 1.2784378,1.2784378 0 0 1 0,0.252771 0.35485156,0.35485156 0 0 1 -0.05833,0.136108 0.33054666,0.33054666 0 0 1 -0.165273,0.121524 0.91386428,0.91386428 0 0 1 -0.296521,0.03889 h -0.89442 a 0.91386428,0.91386428 0 0 1 -0.29652,-0.03889 0.3208247,0.3208247 0 0 1 -0.165273,-0.121524 0.37429549,0.37429549 0 0 1 -0.05833,-0.136108 1.2784378,1.2784378 0 0 1 0,-0.252771 v -1.409684 h -0.277075 v 1.409684 a 1.3319086,1.3319086 0 0 0 0.04861,0.3986 0.51526391,0.51526391 0 0 0 0.155551,0.243049 0.5687347,0.5687347 0 0 0 0.252771,0.116664 2.3624364,2.3624364 0 0 0 0.486098,0.03403 h 0.665954 a 2.3770193,2.3770193 0 0 0 0.486098,-0.03403 0.53470784,0.53470784 0 0 0 0.24791,-0.116664 0.52498587,0.52498587 0 0 0 0.150691,-0.247909 1.4242673,1.4242673 0 0 0 0.04861,-0.408322 v -1.395102 h -0.277076 z"
       id="path11"
       style="display:inline;fill:#000000;fill-opacity:1;stroke:none;stroke-width:0.486098;stroke-opacity:1" /><path
       id="polygon11"
       style="display:inline;fill:#000000;stroke-width:0.486098"
       d="m 64.186312,37.265435 -0.996501,-1.020806 h -0.379157 l 1.229828,1.268717 v 0.909002 h 0.286798 v -0.909002 l 1.23955,-1.268717 h -0.388878 z" /><path
       d="m 49.79781,37.270296 a 0.5687347,0.5687347 0 0 0 -0.204162,-0.06806 2.6832611,2.6832611 0 0 0 -0.384017,0 h -0.782618 a 0.97219609,0.97219609 0 0 1 -0.486098,-0.07777 0.33054666,0.33054666 0 0 1 -0.116663,-0.291659 0.31596372,0.31596372 0 0 1 0.116663,-0.286798 0.91872525,0.91872525 0 0 1 0.456933,-0.07777 h 0.743729 a 0.82636666,0.82636666 0 0 1 0.437488,0.07292 0.34026862,0.34026862 0 0 1 0.102082,0.291659 v 0.03403 h 0.257631 v -0.08263 a 0.82150567,0.82150567 0 0 0 -0.03403,-0.262493 0.37915646,0.37915646 0 0 0 -0.111803,-0.170135 0.55415176,0.55415176 0 0 0 -0.252771,-0.106942 3.5047668,3.5047668 0 0 0 -0.568735,-0.02917 h -0.486098 a 1.4096843,1.4096843 0 0 0 -0.734008,0.136107 0.52498587,0.52498587 0 0 0 -0.1993,0.486098 0.54929078,0.54929078 0 0 0 0.174996,0.486099 1.0353888,1.0353888 0 0 0 0.612483,0.136107 h 0.918725 a 0.65623234,0.65623234 0 0 1 0.384017,0.07777 0.34999058,0.34999058 0 0 1 0.09236,0.281937 0.3694345,0.3694345 0 0 1 -0.136108,0.335408 1.224967,1.224967 0 0 1 -0.578456,0.0875 h -0.568734 a 1.0791376,1.0791376 0 0 1 -0.486098,-0.08263 0.30624176,0.30624176 0 0 1 -0.136108,-0.286798 c 0,0 0,-0.04375 0,-0.0875 v -0.04375 h -0.262493 a 0.12152451,0.12152451 0 0 0 0,0.0243 c 0,0.06319 0,0.111802 0,0.136108 a 0.48609803,0.48609803 0 0 0 0.184717,0.437488 1.1131645,1.1131645 0 0 0 0.627066,0.131246 h 0.738869 A 1.254133,1.254133 0 0 0 49.822112,38.33 a 0.58817862,0.58817862 0 0 0 0.19444,-0.486098 0.97219609,0.97219609 0 0 0 -0.04861,-0.34513 0.36457352,0.36457352 0 0 0 -0.160413,-0.184717"
       id="path12"
       style="display:inline;fill:#000000;fill-opacity:1;stroke:none;stroke-width:0.486098;stroke-opacity:1" /><path
       d="M 54.333104,36.371015 A 0.6416494,0.6416494 0 0 0 54.06089,36.254351 2.7707588,2.7707588 0 0 0 53.545626,36.220323 H 52.82134 a 2.7658978,2.7658978 0 0 0 -0.515265,0.03403 0.6416494,0.6416494 0 0 0 -0.272215,0.116664 0.48609803,0.48609803 0 0 0 -0.165273,0.252771 1.4582941,1.4582941 0 0 0 -0.05347,0.432627 v 0.59304 a 1.2687159,1.2687159 0 0 0 0.05347,0.3986 0.5201249,0.5201249 0 0 0 0.170135,0.24791 0.63192744,0.63192744 0 0 0 0.272215,0.116664 2.8096466,2.8096466 0 0 0 0.515264,0.03403 h 0.734008 a 2.8193686,2.8193686 0 0 0 0.520124,-0.03403 0.62220548,0.62220548 0 0 0 0.272215,-0.116664 0.48609803,0.48609803 0 0 0 0.165273,-0.24791 1.3221866,1.3221866 0 0 0 0.05347,-0.413183 v -0.607623 a 1.3221866,1.3221866 0 0 0 -0.05347,-0.413183 0.48609803,0.48609803 0 0 0 -0.165273,-0.24791 m -0.07291,1.200662 v 0.07291 a 1.224967,1.224967 0 0 1 0,0.25277 0.37915646,0.37915646 0 0 1 -0.06319,0.140969 0.34999058,0.34999058 0 0 1 -0.179857,0.121525 1.1180255,1.1180255 0 0 1 -0.325685,0.03403 h -0.972197 a 1.1180255,1.1180255 0 0 1 -0.325685,-0.03403 0.34999058,0.34999058 0 0 1 -0.179856,-0.121525 0.37915646,0.37915646 0 0 1 -0.06806,-0.145829 1.4242673,1.4242673 0 0 1 0,-0.281938 v -0.573595 a 1.4242673,1.4242673 0 0 1 0,-0.281937 0.37915646,0.37915646 0 0 1 0.06806,-0.145829 0.35485156,0.35485156 0 0 1 0.179856,-0.121525 1.1180255,1.1180255 0 0 1 0.325685,-0.03403 h 0.972197 a 1.1180255,1.1180255 0 0 1 0.325685,0.03403 0.35485156,0.35485156 0 0 1 0.179857,0.121525 0.37915646,0.37915646 0 0 1 0.06319,0.140968 1.220106,1.220106 0 0 1 0,0.252771 z"
       id="path13"
       style="display:inline;fill:#000000;fill-opacity:1;stroke:none;stroke-width:0.486098;stroke-opacity:1" /><path
       d="m 37.727996,36.371015 a 0.64651038,0.64651038 0 0 0 -0.272215,-0.116664 2.7707588,2.7707588 0 0 0 -0.515264,-0.03403 H 36.21137 a 2.7707588,2.7707588 0 0 0 -0.515264,0.03403 0.6416494,0.6416494 0 0 0 -0.272215,0.116664 0.48609803,0.48609803 0 0 0 -0.165273,0.252771 1.4582941,1.4582941 0 0 0 -0.05347,0.432627 v 0.59304 a 1.2687159,1.2687159 0 0 0 0.05347,0.3986 0.51526391,0.51526391 0 0 0 0.170134,0.24791 0.63678842,0.63678842 0 0 0 0.272215,0.116664 2.8096466,2.8096466 0 0 0 0.515263,0.03403 h 0.724287 a 2.8193686,2.8193686 0 0 0 0.520125,-0.03403 0.62220548,0.62220548 0 0 0 0.272215,-0.116664 0.48609803,0.48609803 0 0 0 0.165273,-0.24791 1.3221866,1.3221866 0 0 0 0.05347,-0.413183 v -0.607623 a 1.3221866,1.3221866 0 0 0 -0.05347,-0.413183 0.48609803,0.48609803 0 0 0 -0.165273,-0.24791 m -0.07291,1.200662 v 0.07291 a 1.2103841,1.2103841 0 0 1 0,0.25277 0.37915646,0.37915646 0 0 1 -0.0632,0.140969 0.34999058,0.34999058 0 0 1 -0.179857,0.121525 1.1180255,1.1180255 0 0 1 -0.325685,0.03403 h -0.972196 a 1.1131645,1.1131645 0 0 1 -0.325686,-0.03403 0.34999058,0.34999058 0 0 1 -0.179856,-0.121525 0.37915646,0.37915646 0 0 1 -0.06806,-0.145829 1.4242673,1.4242673 0 0 1 0,-0.281938 v -0.573595 a 1.4242673,1.4242673 0 0 1 0,-0.281937 0.37915646,0.37915646 0 0 1 0.06806,-0.145829 0.35485156,0.35485156 0 0 1 0.179856,-0.121525 1.1131645,1.1131645 0 0 1 0.325686,-0.03403 h 0.972196 a 1.1180255,1.1180255 0 0 1 0.325685,0.03403 0.34999058,0.34999058 0 0 1 0.179857,0.121525 0.37915646,0.37915646 0 0 1 0.0632,0.140968 1.2055231,1.2055231 0 0 1 0,0.252771 z"
       id="path14"
       style="display:inline;fill:#000000;fill-opacity:1;stroke:none;stroke-width:0.486098;stroke-opacity:1" /><path
       id="polygon14"
       style="display:inline;fill:#000000;stroke-width:0.486098"
       d="m 19.159052,38.422348 h 0.272215 v -1.001361 h 1.715926 v -0.238188 h -1.715926 v -0.69512 h 1.783979 v -0.24305 h -2.056194 z" /><path
       id="rect14"
       style="display:inline;fill:#000000;stroke-width:0.486098"
       d="m 50.745701,36.244629 h 0.272215 v 2.177719 h -0.272215 z" /><path
       d="m 62.125256,37.270296 a 0.57359567,0.57359567 0 0 0 -0.204162,-0.06806 2.6881221,2.6881221 0 0 0 -0.384017,0 H 60.75446 a 0.97219609,0.97219609 0 0 1 -0.486099,-0.07777 0.33054666,0.33054666 0 0 1 -0.116663,-0.291659 0.31596372,0.31596372 0 0 1 0.116663,-0.286798 0.91872525,0.91872525 0 0 1 0.456933,-0.07777 h 0.743729 a 0.82636666,0.82636666 0 0 1 0.437488,0.07292 0.34026862,0.34026862 0 0 1 0.102081,0.291659 v 0.03403 h 0.257632 v -0.08263 a 0.81664469,0.81664469 0 0 0 -0.03403,-0.262493 0.37429549,0.37429549 0 0 0 -0.111803,-0.170135 0.55901273,0.55901273 0 0 0 -0.252771,-0.106942 3.5096278,3.5096278 0 0 0 -0.568734,-0.02917 h -0.486099 a 1.4096843,1.4096843 0 0 0 -0.734008,0.136107 0.52498587,0.52498587 0 0 0 -0.1993,0.486098 0.54929078,0.54929078 0 0 0 0.174996,0.486099 1.0353888,1.0353888 0 0 0 0.612483,0.136107 h 0.918725 a 0.65623234,0.65623234 0 0 1 0.384017,0.07777 0.34999058,0.34999058 0 0 1 0.09236,0.281937 0.3694345,0.3694345 0 0 1 -0.136107,0.335408 1.224967,1.224967 0 0 1 -0.578456,0.0875 h -0.568734 a 1.0791376,1.0791376 0 0 1 -0.486098,-0.08263 0.30624176,0.30624176 0 0 1 -0.136107,-0.286798 c 0,0 0,-0.04375 0,-0.0875 v -0.04375 h -0.277076 a 0.17985627,0.17985627 0 0 0 0,0.0243 c 0,0.06319 0,0.111802 0,0.136108 a 0.48609803,0.48609803 0 0 0 0.184718,0.437488 1.1131645,1.1131645 0 0 0 0.627066,0.131246 h 0.738869 A 1.254133,1.254133 0 0 0 62.134977,38.33 a 0.58817862,0.58817862 0 0 0 0.194439,-0.486098 0.97219609,0.97219609 0 0 0 -0.04861,-0.34513 0.3694345,0.3694345 0 0 0 -0.160413,-0.184717"
       id="path15"
       style="display:inline;fill:#000000;fill-opacity:1;stroke:none;stroke-width:0.486098;stroke-opacity:1" /><path
       id="polygon15"
       style="display:inline;fill:#000000;stroke-width:0.486098"
       d="m 72.109709,38.422348 h 2.143693 v -0.243049 h -1.881199 v -0.768035 h 1.798562 v -0.238188 h -1.798562 v -0.685397 h 1.881199 v -0.24305 h -2.143693 z" /><path
       d="m 26.965785,36.351571 a 1.4194063,1.4194063 0 0 0 -0.690259,-0.111803 h -1.550653 v 2.17772 h 0.272215 v -0.855533 h 1.317325 a 0.77289587,0.77289587 0 0 1 0.432628,0.07777 0.3694345,0.3694345 0 0 1 0.09236,0.291658 v 0.486098 h 0.272215 v -0.539569 a 0.44721019,0.44721019 0 0 0 -0.09236,-0.296519 0.38887843,0.38887843 0 0 0 -0.267354,-0.126386 0.54929078,0.54929078 0 0 0 0.301381,-0.140969 0.43262725,0.43262725 0 0 0 0.08264,-0.296519 V 36.784192 A 0.45207117,0.45207117 0 0 0 26.965788,36.37587 m -0.116663,0.5979 a 0.35485156,0.35485156 0 0 1 -0.09722,0.291659 0.70484214,0.70484214 0 0 1 -0.388878,0.07292 H 24.992226 V 36.50226 h 1.370797 a 0.69998117,0.69998117 0 0 1 0.388878,0.07291 0.35485156,0.35485156 0 0 1 0.09722,0.291659 z"
       id="path16"
       style="display:inline;fill:#000000;fill-opacity:1;stroke:none;stroke-width:0.486098;stroke-opacity:1" /><path
       id="polygon16"
       style="display:inline;fill:#000000;stroke-width:0.486098"
       d="m 76.630421,38.13555 -1.307603,-1.890921 h -0.388879 v 2.177719 h 0.262493 v -1.915226 l 1.341631,1.915226 h 0.20416 l 1.33677,-1.915226 v 1.915226 h 0.262493 v -2.177719 h -0.403461 z" /><path
       id="polygon17"
       style="display:inline;fill:#000000;stroke-width:0.486098"
       d="m 21.895784,38.422348 h 2.143692 v -0.243049 h -1.8812 v -0.768035 h 1.798564 v -0.238188 h -1.798564 v -0.685397 h 1.8812 v -0.24305 h -2.143692 z" /><path
       id="polygon18"
       style="display:inline;fill:#000000;stroke-width:0.486098"
       d="m 69.057014,36.487679 h 1.079137 v 1.934669 h 0.267355 v -1.934669 h 1.079137 v -0.24305 h -2.425629 z" /><path
       d="M 34.325309,36.351571 A 1.4194063,1.4194063 0 0 0 33.63505,36.239768 h -1.550652 v 2.17772 h 0.272215 v -0.855533 h 1.317325 a 0.77289587,0.77289587 0 0 1 0.432627,0.07777 0.3694345,0.3694345 0 0 1 0.09236,0.291658 v 0.486098 h 0.272215 v -0.539569 a 0.44721019,0.44721019 0 0 0 -0.09236,-0.296519 0.38887843,0.38887843 0 0 0 -0.267354,-0.126386 0.54929078,0.54929078 0 0 0 0.301381,-0.140969 0.43262725,0.43262725 0 0 0 0.08264,-0.296519 V 36.784192 A 0.45207117,0.45207117 0 0 0 34.325312,36.37587 m -0.116663,0.5979 a 0.35485156,0.35485156 0 0 1 -0.09722,0.291659 0.70484214,0.70484214 0 0 1 -0.388878,0.07292 H 32.351754 V 36.50226 h 1.370797 a 0.69998117,0.69998117 0 0 1 0.388878,0.07291 0.35485156,0.35485156 0 0 1 0.09722,0.291659 z"
       id="path18"
       style="display:inline;fill:#000000;fill-opacity:1;stroke:none;stroke-width:0.486098;stroke-opacity:1" /><path
       d="m 68.308423,37.270296 a 0.57359567,0.57359567 0 0 0 -0.204162,-0.06806 2.6832611,2.6832611 0 0 0 -0.384017,0 h -0.782618 a 0.97219609,0.97219609 0 0 1 -0.486098,-0.07777 0.32568568,0.32568568 0 0 1 -0.116663,-0.291659 0.31596372,0.31596372 0 0 1 0.116663,-0.286798 0.91872525,0.91872525 0 0 1 0.456933,-0.07777 h 0.74859 a 0.82636666,0.82636666 0 0 1 0.437489,0.07292 0.34026862,0.34026862 0 0 1 0.10208,0.291659 v 0.03403 h 0.257632 v -0.08263 a 0.82150567,0.82150567 0 0 0 -0.03403,-0.262493 0.37915646,0.37915646 0 0 0 -0.111803,-0.170135 0.55901273,0.55901273 0 0 0 -0.252771,-0.106942 3.5047668,3.5047668 0 0 0 -0.568734,-0.02917 h -0.486099 a 1.4096843,1.4096843 0 0 0 -0.734007,0.136107 0.52498587,0.52498587 0 0 0 -0.199301,0.486098 0.54929078,0.54929078 0 0 0 0.174995,0.486099 1.0353888,1.0353888 0 0 0 0.612484,0.136107 h 0.918726 a 0.65623234,0.65623234 0 0 1 0.384017,0.07777 0.34999058,0.34999058 0 0 1 0.09236,0.281937 0.3694345,0.3694345 0 0 1 -0.136107,0.335408 1.224967,1.224967 0 0 1 -0.578457,0.0875 h -0.568733 a 1.0791376,1.0791376 0 0 1 -0.486098,-0.08264 0.30624176,0.30624176 0 0 1 -0.136108,-0.286798 c 0,0 0,-0.04375 0,-0.0875 0,-0.04375 0,-0.03403 0,-0.04375 h -0.262492 a 0.15069039,0.15069039 0 0 0 0,0.0243 c 0,0.06319 0,0.111802 0,0.136108 a 0.48609803,0.48609803 0 0 0 0.184717,0.437488 1.1131645,1.1131645 0 0 0 0.627067,0.131246 h 0.738869 a 1.254133,1.254133 0 0 0 0.704842,-0.140968 0.58817862,0.58817862 0 0 0 0.194439,-0.486098 0.97219609,0.97219609 0 0 0 -0.04861,-0.34513 0.3694345,0.3694345 0 0 0 -0.160413,-0.184717"
       id="path19"
       style="display:inline;fill:#000000;fill-opacity:1;stroke:none;stroke-width:0.486098;stroke-opacity:1" /><path
       id="polygon19"
       style="display:inline;fill:#000000;stroke-width:0.486098"
       d="m 57.711486,38.174439 -1.968697,-1.92981 h -0.427767 v 2.177719 h 0.272215 v -1.958975 l 1.997863,1.958975 h 0.393739 v -2.177719 h -0.267353 z" /></g></svg>
