<?xml version="1.0" encoding="UTF-8" standalone="no"?>
<svg
   viewBox="0 0 1024 1024"
   version="1.1"
   id="svg1"
   width="1024"
   height="1024"
   xmlns="http://www.w3.org/2000/svg"
   xmlns:svg="http://www.w3.org/2000/svg">
  <defs
     id="defs3051">
    <style
       type="text/css"
       id="current-color-scheme">
      .ColorScheme-Text {
        color:#232629;
      }
      </style>
  </defs>
  <path
     style="fill:#8f001a;fill-opacity:1;stroke:none;stroke-width:77.4709"
     d="M 511.98837,47.173616 A 232.4132,232.4132 0 0 0 279.57517,279.58681 232.4132,232.4132 0 0 0 511.98837,512 232.4132,232.4132 0 0 0 744.40159,279.58681 232.4132,232.4132 0 0 0 511.98837,47.173616 m 0,77.471064 A 154.94213,154.94213 0 0 1 666.93053,279.58681 154.94213,154.94213 0 0 1 511.98837,434.52894 154.94213,154.94213 0 0 1 357.04624,279.58681 154.94213,154.94213 0 0 1 511.98837,124.64468 m 0,464.82639 a 387.35533,348.61979 0 0 0 -387.35532,348.61981 387.35533,348.61979 0 0 0 2.57203,38.7355 h 769.28765 a 387.35533,348.61979 0 0 0 2.87422,-38.7355 387.35533,348.61979 0 0 0 -387.35534,-348.61981 m 0.004,77.47106 A 309.88426,271.14873 0 0 1 818.41974,899.35532 H 205.62362 A 309.88426,271.14873 0 0 1 512.02788,666.94213"
     class="ColorScheme-Text"
     id="path1" />
</svg>
