<svg xmlns="http://www.w3.org/2000/svg" xml:space="preserve" width="221" height="157.1" viewBox="0 0 58.5 41.6"><path d="m151.9 94-3.8 20q-.5 2.7-.5 4.7c0 4.8 3.8 8.1 9.2 8.1q5.7 0 9.6-4a16 16 0 0 0 3.9-8.7l3.8-20.2h-3.3l-3.8 20.2a14 14 0 0 1-2.8 6.7c-1.6 2-4.2 3-6.8 3-3.8 0-6.4-2.3-6.4-5.8q0-1.8.4-4l3.8-20z" aria-label="U" style="font-style:italic;font-size:85.3333px;line-height:1;font-family:&quot;URW Gothic&quot;;-inkscape-font-specification:&quot;URW Gothic Italic&quot;;letter-spacing:3.89px;white-space:pre;fill:#f2f2f2;fill-opacity:1;stroke-width:8.24983" transform="translate(-146.4 -92)"/><path d="M190.1 92a22 22 0 0 0-16.1 7.3c-3.5 3.8-5.7 9-5.7 13.8 0 8.5 6.3 14.6 15.2 14.6a22 22 0 0 0 21.4-21.1c0-8.5-6.1-14.6-14.8-14.6m-1.1 6a9 9 0 0 1 9.5 9.4c0 2.8-1.2 6-3 8.5a13 13 0 0 1-10.8 5.5c-5.7 0-9.8-3.9-9.8-9.5 0-2.7 1.2-5.8 3.1-8.3q4.3-5.5 11-5.6" aria-label="O" style="font-style:oblique;font-weight:600;font-size:96px;line-height:1;font-family:&quot;URW Gothic&quot;;-inkscape-font-specification:&quot;URW Gothic Semi-Bold Oblique&quot;;white-space:pre;fill:#8f001a;stroke-width:7.77731" transform="translate(-146.4 -92)"/><path d="M160.4 126.3q-.2-.2 0-.5l1.2-.6 4.5-2.4 10.1-5.2 5.2-2.1a154 154 0 0 1-12.8 6.7l-4 2zm4-.5v-.2a84 84 0 0 1 14-6.9l-4.3 2.4-1 .5-8.4 4.2zm-6.8-.3s0-.2 1.3-.8l5.2-2.8 7-3.5a152 152 0 0 1 11-4.8q.6 0-5 2.7l-17.7 8.7q-1.6.7-1.8.5m-.3-2.2v-.2c.4-.3 5-2.6 6-2.9v-1l-.6-2.5-1.4.5c-2.7 1.2-3.4 1.4-3.3 1l6.3-3 .5-.3 1.7.4c2.6.7 2.6.7 3.4.6a20 20 0 0 0 4.4-.8l1.2-.5 1.1-.6.8-.4 1.8-.8 3.2-1.4 1.2-.5 1-.4 3.2-1.5 2.9-1.2 2.2-1 1.2-.5.6-.3.6-.2.3-.1.5-.2.7-.3c1.3-.4 3-.8 4-.8l1.2-.2 2.6-.4-1.4.8-.3.2-.5.2-.3.2-.2.1-.4.3-.3.1-.3.2-.6.4L190 111l.2-.2.7-.4 10-5 1.4-.6.6-.3h-.8l-.3.1h-.3l-.4.2h-.3l-1 .3h-.3l-.4.2-.3.1-.5.2-.6.2-.5.2-.4.2h-.2l-.6.3a103 103 0 0 0-8.7 3.8l-1.6.7-1 .5-2.4 1-5.4 2.5-2.2 1-.7.3a49 49 0 0 0-5.9 2.6l-3 1.4a45 45 0 0 1-7.8 3" style="fill:#908681;fill-opacity:1" transform="translate(-146.4 -92)"/><g aria-label="AERONAUTICS" style="font-style:italic;font-size:13.5909px;line-height:1;font-family:&quot;Adwaita Mono&quot;;-inkscape-font-specification:&quot;Adwaita Mono Italic&quot;;letter-spacing:2.20286px;white-space:pre;fill:#8f001a;stroke-width:16"><path d="m235 330.8 5.1-9.9h2.2l1.9 9.9h-1.9l-.8-5.2-.3-1.7-.3-2.2h.5l-1 2.2-.9 1.7-2.6 5.2zm2.4-2.4.3-1.4h5l-.2 1.4zm9.9 2.4 1.6-9.9h7l-.3 1.5h-5.2l-.4 2.6h4.7l-.2 1.5h-4.7l-.5 2.8h5.1l-.2 1.5zm10.3 0 1.6-9.9h3.9q1 0 1.8.4.7.4 1 1 .4.8.2 1.8-.1 1-.7 1.6t-1.5 1.1-2 .4h-2.7l.3-1.4h2.7q.6 0 1-.3t.8-.6.4-.9q.1-.7-.3-1.2t-1.3-.4h-2l-1.4 8.4zm5.8 0-1.6-4.5h1.8l1.6 4.5zm9.5.2q-1.2 0-2.1-.5t-1.4-1.5-.5-2.1.4-2.3 1.1-2q.8-.8 1.8-1.3t2.2-.6q1.2 0 2 .6 1 .5 1.4 1.4.5.9.5 2.1t-.4 2.4-1.1 2-1.7 1.3-2.2.5m0-1.6q.9 0 1.6-.4.6-.4 1-1 .6-.7.8-1.5t.3-1.6q0-.9-.3-1.4-.3-.6-.8-.9t-1.2-.3q-.8 0-1.5.4t-1.2 1l-.7 1.5-.2 1.6q0 .9.3 1.4.3.6.8.9t1.1.3" style="font-weight:600;font-family:&quot;Adwaita Sans&quot;;-inkscape-font-specification:&quot;Adwaita Sans Semi-Bold Italic&quot;" transform="matrix(.47804 0 0 .45666 -111.7 -109.6)"/><path d="m281.1 330.8 1.7-9.9h1l3.4 6.8.2.6.4.7.3.8-.1.1.1-.8.1-.8.1-.6 1.2-6.8h.9l-1.7 9.9h-1l-3.2-6.3q0-.3-.3-.7l-.4-.8-.5-1 .2-.3-.2 1.2-.1.9-.1.7-1 6.3zm11 0 5.3-9.9h1l2 9.9h-.9l-1.2-6.5-.3-1.3-.3-1.7h.3l-.8 1.7-.7 1.3-3.4 6.5zm2.2-3 .1-.7h5l-.2.8zM307 331q-1.1 0-2-.4-.7-.5-1-1.3t-.2-1.8l1-6.5h1l-1.1 6.5q-.2.8 0 1.4t.9 1 1.4.3 1.6-.4 1.2-1 .6-1.4l1-6.4h1l-1.1 6.6q-.2 1-.8 1.8-.6.7-1.5 1.2t-2 .4m8.7-9.2.1-.8h7.5l-.1.8h-3.3l-1.5 9.1h-.9l1.5-9zm12.1-.8-1.6 9.9h-1l1.7-9.9zm6.6 10q-1.1 0-2-.5t-1.2-1.4q-.5-.9-.5-2t.4-2.3 1-2 1.7-1.4 2.2-.5q.8 0 1.5.2l1 .7.8 1 .2 1.4h-.9q0-.6-.2-1l-.5-.8-.8-.5q-.5-.2-1.1-.2-1 0-1.8.4t-1.4 1.3-.9 1.7-.3 2 .4 1.6 1 1.1 1.5.4q.6 0 1.1-.2l1-.5q.5-.3.8-.8t.6-1h1q-.3.7-.8 1.3t-1 1q-.5.5-1.3.8-.7.2-1.5.2m10.8 0q-1 0-1.8-.3-.7-.4-1-1-.3-.8-.2-1.7h.9q-.1.7.1 1.2t.8.8 1.3.2 1.4-.2l1-.7q.4-.5.5-1v-.8q-.2-.4-.6-.6-.4-.3-1.1-.5l-1.1-.3q-1.3-.4-1.9-1t-.4-1.6q.2-.8.7-1.4t1.2-1q.8-.2 1.8-.2t1.6.3 1 1 .2 1.6h-.9q.1-1-.4-1.6-.6-.5-1.6-.5-.7 0-1.3.2l-1 .7q-.3.4-.4 1v.7l.6.6 1.1.4 1 .3q.8.2 1.2.5l.8.5.4.8v.9q-.2.8-.7 1.4-.5.7-1.3 1t-1.9.3" style="font-weight:300;font-family:&quot;Adwaita Sans&quot;;-inkscape-font-specification:&quot;Adwaita Sans Light Italic&quot;" transform="matrix(.47804 0 0 .45666 -111.7 -109.6)"/></g></svg>